<svg id="Group_7" data-name="Group 7" xmlns="http://www.w3.org/2000/svg" xmlns:xlink="http://www.w3.org/1999/xlink" width="17.97" height="17.224" viewBox="0 0 17.97 17.224">
  <defs>
    <clipPath id="clip-path">
      <rect id="Rectangle_22" data-name="Rectangle 22" width="17.97" height="17.224" fill="#3d5065"/>
    </clipPath>
  </defs>
  <g id="Group_3" data-name="Group 3" clip-path="url(#clip-path)">
    <path id="Path_374" data-name="Path 374" d="M17.97,6.987c-.134.488-.556.733-.9,1.038-1.075.955-2.16,1.9-3.244,2.843a.207.207,0,0,0-.073.239c.372,1.625.738,3.252,1.108,4.877A.962.962,0,0,1,13.4,17.051Q11.26,15.769,9.12,14.487a.22.22,0,0,0-.267,0q-2.146,1.289-4.3,2.569a.951.951,0,0,1-1.482-.729,2.026,2.026,0,0,1,.1-.637q.515-2.277,1.039-4.552a.272.272,0,0,0-.108-.309Q2.23,9.194.361,7.55A.955.955,0,0,1,.883,5.856q.488-.05.977-.095L4.512,5.52c.448-.04.9-.083,1.345-.114a.287.287,0,0,0,.282-.2C6.779,3.693,7.427,2.182,8.071.67A.961.961,0,0,1,9.585.215a1.141,1.141,0,0,1,.324.47c.648,1.517,1.3,3.033,1.943,4.552a.237.237,0,0,0,.23.165q1.641.142,3.282.289c.582.052,1.163.105,1.744.168a.923.923,0,0,1,.829.7.831.831,0,0,0,.034.078Z" transform="translate(0 0)" fill="#3d5065"/>
  </g>
</svg>
