<svg xmlns="http://www.w3.org/2000/svg" width="371.67" height="41.266" viewBox="0 0 371.67 41.266">
  <g id="Group_6264" data-name="Group 6264" transform="translate(-7137.583 -8247.623)">
    <g id="Group_596" data-name="Group 596" transform="translate(7137.583 8248.505)">
      <path id="Path_28" data-name="Path 28" d="M5.1,51.713H4.969c0-.064-.032-.161-.032-.193s0-.1-.1-.1H4.648v.289h-.1v-.676H4.84c.128,0,.224.032.224.161A.189.189,0,0,1,5,51.359a.168.168,0,0,1,.064.129v.129c0,.032,0,.032.032.032v.064Zm-.128-.482c0-.1-.064-.1-.1-.1H4.648v.193H4.84C4.9,51.328,4.969,51.3,4.969,51.231Zm.546.129a.721.721,0,0,0-.738-.708.713.713,0,0,0-.706.708.722.722,0,1,0,1.445,0Zm-.1,0a.618.618,0,0,1-.642.611.591.591,0,0,1-.61-.611.61.61,0,0,1,.61-.611A.639.639,0,0,1,5.418,51.359Zm39.546-13c0,.965-.61,1.415-1.7,1.415H41.176v-.965h2.086a.664.664,0,0,0,.418-.1.41.41,0,0,0,.128-.29.49.49,0,0,0-.128-.322.556.556,0,0,0-.385-.1c-.995-.032-2.247.032-2.247-1.383a1.354,1.354,0,0,1,1.54-1.351H44.74v.965H42.749a.76.76,0,0,0-.417.064.461.461,0,0,0-.16.354.351.351,0,0,0,.224.322,1.638,1.638,0,0,0,.418.064h.578a1.818,1.818,0,0,1,1.252.354,1.392,1.392,0,0,1,.321.965ZM40.438,37.4a1.819,1.819,0,0,0-1.252-.354h-.578a1.643,1.643,0,0,1-.417-.064.35.35,0,0,1-.224-.322.378.378,0,0,1,.16-.354.759.759,0,0,1,.417-.064h1.99v-.965H38.384c-1.156,0-1.541.708-1.541,1.351,0,1.415,1.252,1.351,2.247,1.383a.555.555,0,0,1,.385.1.492.492,0,0,1,.129.322.409.409,0,0,1-.129.29.729.729,0,0,1-.417.1H36.971v.965h2.086c1.091,0,1.7-.449,1.7-1.415a1.39,1.39,0,0,0-.321-.965Zm-4.109,1.448H33.794v-.9h2.471v-.9H33.794v-.837h2.535v-.933H32.734v4.5h3.595v-.933ZM31.579,35.5a2.688,2.688,0,0,0-1.316-.225H27.792v4.5h1.091v-1.64h1.156c.385,0,.61.032.77.193a1.438,1.438,0,0,1,.193.9v.547h1.059v-.869a1.487,1.487,0,0,0-.16-.836,1.252,1.252,0,0,0-.545-.386,1.239,1.239,0,0,0,.77-1.19A1.013,1.013,0,0,0,31.579,35.5Zm-6.1-.225H22.045l-1.38,1.48-1.316-1.48H15.016v4.5h4.269l1.38-1.48,1.316,1.48h2.086V38.267h1.348c.931,0,1.862-.257,1.862-1.512,0-1.222-.963-1.48-1.8-1.48Zm5.233,1.866a1.331,1.331,0,0,1-.514.064l-1.316.032v-1.03H30.2a.869.869,0,0,1,.514.1.409.409,0,0,1,.224.386.563.563,0,0,1-.225.45Zm-5.233.225H24.068V36.208H25.48c.385,0,.642.161.642.547a.583.583,0,0,1-.642.611Zm-4.141.161,1.669-1.769v3.635Zm-2.6,1.319H16.075v-.9H18.45v-.9H16.075v-.837h2.7l1.188,1.319-1.22,1.319Zm23.239-6.82h-1.54l-2.022-3.377v3.378H36.233l-.418-1H33.569l-.417,1H31.9a2.319,2.319,0,0,1-1.572-.515,2.358,2.358,0,0,1-.546-1.7,2.328,2.328,0,0,1,.578-1.769A2.175,2.175,0,0,1,32,27.522h1.027v.966H32a1.134,1.134,0,0,0-.834.257,1.46,1.46,0,0,0-.289,1.029,1.612,1.612,0,0,0,.289,1.062,1.069,1.069,0,0,0,.738.225h.482l1.54-3.538h1.605l1.8,4.247V27.522h1.669l1.894,3.12v-3.12h1.091v4.5h0Zm-12.742-4.5H28.145v4.5h1.091Zm-2.279.193a2.578,2.578,0,0,0-1.284-.193H23.2v4.5H24.26V30.385h1.156a1.1,1.1,0,0,1,.8.193,1.368,1.368,0,0,1,.16.869v.579H27.47v-.9a1.2,1.2,0,0,0-.192-.8,1.343,1.343,0,0,0-.514-.386,1.277,1.277,0,0,0,.77-1.19,1.115,1.115,0,0,0-.578-1.029Zm-4.526,3.378h-2.5v-.9H22.4V29.26H19.927v-.8h2.5v-.933H18.835v4.5H22.43v-.933Zm-4.4-3.571H16.268l-1.316,3.057L13.54,27.522H11.806v4.246l-1.83-4.246h-1.6l-1.926,4.5H7.6l.417-1h2.247l.417,1h2.183V28.488l1.573,3.538h.931l1.573-3.538v3.538h1.091v-4.5h0Zm17.4,2.541-.739-1.769-.738,1.769Zm-9.309-.707a.979.979,0,0,1-.546.1H24.261v-1h1.316a1.414,1.414,0,0,1,.546.064.479.479,0,0,1,.193.418.443.443,0,0,1-.193.418ZM8.4,30.064l.738-1.769.738,1.769ZM44.707,13.4H6.413V29.613l1.316-2.992h2.793l.385.74v-.74h3.274l.738,1.608.706-1.608H26.058a1.894,1.894,0,0,1,1.22.354v-.354h2.857v.354a3.817,3.817,0,0,1,1.8-.354h4.141l.385.74v-.74h3.05l.45.74v-.74h2.985v6.305H39.925l-.578-.965v.965H35.591L35.174,31.9h-.931l-.417,1.029H31.867a3.839,3.839,0,0,1-1.733-.386v.386H25.48V31.479c0-.193-.032-.225-.161-.225h-.16v1.673H16.171v-.8l-.321.8H13.957l-.321-.772v.772H10.008L9.623,31.9H8.692l-.417,1.029H6.413V51.938H44.707V40.39a3.922,3.922,0,0,1-1.573.29H40.342v-.386a2.471,2.471,0,0,1-1.444.386H30.1V39.232c0-.193-.032-.193-.193-.193h-.16v1.641H26.86v-1.7a3.529,3.529,0,0,1-1.509.225h-.321v1.48H21.5l-.834-.965-.931.965H14.053v-6.3H19.83l.835.965.9-.965h3.884a2.418,2.418,0,0,1,1.508.386v-.386h3.467a2.741,2.741,0,0,1,1.477.386v-.386h5.233v.386a2.131,2.131,0,0,1,1.316-.386h2.921v.386a2.317,2.317,0,0,1,1.348-.386h1.99Z" transform="translate(-4.07 -13.4)" fill="#485ba2" fill-rule="evenodd"/>
    </g>
    <g id="Group_597" data-name="Group 597" transform="translate(7188.346 8248.505)">
      <path id="Path_720" data-name="Path 720" d="M15.725,13.218h-1.87v3.814h1.87a1.8,1.8,0,0,0,2.037-1.9,1.8,1.8,0,0,0-2.037-1.915Z" transform="translate(10.355 2.888)" fill="#485ba2"/>
      <path id="Path_721" data-name="Path 721" d="M17.964,17.31c0,.617.542,1.01,1.373,1.01a1.737,1.737,0,0,0,1.87-1.644v-.559l-1.749.122c-.98.059-1.494.421-1.494,1.069Z" transform="translate(13.426 5.056)" fill="#485ba2"/>
      <path id="Path_722" data-name="Path 722" d="M48.926,4H3.495A3.5,3.5,0,0,0,0,7.495V38.947a3.5,3.5,0,0,0,3.495,3.495H48.926a3.5,3.5,0,0,0,3.495-3.495V7.495A3.5,3.5,0,0,0,48.926,4ZM15.151,15.543a3.137,3.137,0,0,1,2.06-1.059,3.087,3.087,0,0,1-.727,2.233,2.6,2.6,0,0,1-2.074.989,2.92,2.92,0,0,1,.741-2.163Zm4,11.185c-.584.851-1.188,1.7-2.141,1.716-.937.017-1.237-.554-2.307-.554s-1.4.538-2.291.571c-.919.035-1.62-.921-2.207-1.768-1.2-1.735-2.118-4.9-.886-7.042A3.414,3.414,0,0,1,12.214,17.9c.9-.017,1.756.606,2.307.606s1.588-.751,2.677-.641a3.264,3.264,0,0,1,2.556,1.387,3.159,3.159,0,0,0-1.511,2.659,3.084,3.084,0,0,0,1.877,2.827,7.738,7.738,0,0,1-.966,1.99Zm7.274-1.555H24.208v3.275H22.716V18.853h3.757A3.022,3.022,0,0,1,29.641,22a3.055,3.055,0,0,1-3.215,3.168Zm9.638,3.259H34.694V27.226h-.031a2.522,2.522,0,0,1-2.277,1.281,2.175,2.175,0,0,1-2.459-2.127c0-1.267.979-1.992,2.761-2.113l1.945-.1V23.6c0-.828-.559-1.281-1.508-1.281a1.376,1.376,0,0,0-1.478,1.026H30.3c.045-1.283,1.253-2.219,2.866-2.219,1.765,0,2.9.937,2.9,2.354Zm4.919.332c-.619,1.735-1.3,2.293-2.777,2.293a3.744,3.744,0,0,1-.573-.03V29.85a2.249,2.249,0,0,0,.454.03A1.242,1.242,0,0,0,39.4,28.823l.1-.376L36.88,21.206h1.555l1.856,5.9h.03l1.856-5.9h1.508Z" transform="translate(0 -4)" fill="#485ba2"/>
    </g>
    <g id="Group_598" data-name="Group 598" transform="translate(7250.636 8247.623)">
      <path id="Path_723" data-name="Path 723" d="M52.731,5.235V4.894H52.39A3.545,3.545,0,0,0,50.05,4H3.575A3.579,3.579,0,0,0,0,7.575V39.75a3.579,3.579,0,0,0,3.575,3.575H50.05a3.575,3.575,0,0,0,3.575-3.575V7.575A3.547,3.547,0,0,0,52.731,5.235ZM9.778,24.406a3.573,3.573,0,0,1-2.456.8H5.363V18.286h1.97a3.426,3.426,0,0,1,3.693,3.464,3.486,3.486,0,0,1-1.248,2.656ZM43.24,18.287h1.989c1.548,0,2.435.747,2.435,2.041A1.835,1.835,0,0,1,46.1,22.29L48.263,25.2h-1.65l-1.859-2.778H44.58V25.2H43.24V18.286Zm-4.7,0h3.807v1.171H39.885V21H42.26v1.171H39.885v1.866h2.467V25.2H38.544V18.286Zm-5.756,0,1.836,4.646,1.859-4.647h1.455l-2.973,7.1h-.722l-2.919-7.1H32.79Zm-19.8,6.918H11.644V18.287h1.341v6.918Zm2.887.164a2.673,2.673,0,0,1-2.383-1.316l.867-.84a1.589,1.589,0,0,0,1.466.922.983.983,0,0,0,1.042-.976.829.829,0,0,0-.4-.715,5.353,5.353,0,0,0-.93-.393c-1.26-.456-1.691-.944-1.691-1.9a2.025,2.025,0,0,1,2.145-1.982,3,3,0,0,1,2.022.767l-.7.924a1.384,1.384,0,0,0-1.081-.559c-.579,0-1,.331-1,.767,0,.374.238.572,1.042.871C17.793,21.5,18.247,22,18.247,23.1A2.224,2.224,0,0,1,15.873,25.37Zm8.11-5.227a2.241,2.241,0,0,0-1.682-.778,2.294,2.294,0,0,0-2.249,2.376,2.255,2.255,0,0,0,2.311,2.385,2.139,2.139,0,0,0,1.619-.756v1.587a3.7,3.7,0,0,1-1.682.4,3.572,3.572,0,0,1-3.632-3.609,3.629,3.629,0,0,1,3.664-3.62,3.408,3.408,0,0,1,1.65.425v1.587Zm4.1-2.052a3.679,3.679,0,1,1-3.661,3.679A3.671,3.671,0,0,1,28.082,18.091ZM51.838,39.75a1.79,1.79,0,0,1-1.788,1.787H25.363A90.329,90.329,0,0,0,51.838,27.525Z" transform="translate(0 -4)" fill="#485ba2"/>
      <path id="Path_724" data-name="Path 724" d="M26.643,13.628c0-.674-.456-1.026-1.291-1.026H24.94V14.7h.391C26.189,14.7,26.643,14.322,26.643,13.628Z" transform="translate(19.64 2.774)" fill="#485ba2"/>
      <path id="Path_725" data-name="Path 725" d="M4.111,12.648H3.75v4.576h.361a2.535,2.535,0,0,0,1.836-.551,2.377,2.377,0,0,0,.744-1.743,2.336,2.336,0,0,0-.744-1.723,2.483,2.483,0,0,0-1.836-.559Z" transform="translate(2.953 2.81)" fill="#485ba2"/>
    </g>
    <path id="Path_823" data-name="Path 823" d="M50.691,4H3.621A3.624,3.624,0,0,0,0,7.621V40.207a3.624,3.624,0,0,0,3.621,3.621h47.07a3.624,3.624,0,0,0,3.621-3.621V7.621A3.624,3.624,0,0,0,50.691,4Zm-30.8,28.184c0,.136-.007.27-.018.4a4,4,0,0,1-.55,1.761,4.713,4.713,0,0,1-2.884,2.064,8.538,8.538,0,0,1-2.127.165H8.147V28.5a.9.9,0,0,0,.163.054c.186.042.407.089.634.121a29.459,29.459,0,0,0,3.13.322c.214.011.431.014.663.014.259,0,.543-.005.891-.018.3-.009.559-.025.8-.047.091-.009.181-.018.268-.024q.323-.021.643-.071a5.236,5.236,0,0,0,3.009-1.414,3.191,3.191,0,0,0,.76-2.153V20.827a.774.774,0,0,0-.815-.724H15.184a.773.773,0,0,0-.815.724l-.013,4.716A1.651,1.651,0,0,1,13.263,26.9a3.277,3.277,0,0,1-1.191.194,7.622,7.622,0,0,1-.882-.058,9.827,9.827,0,0,1-2.364-.6.909.909,0,0,0-.679.013V15.936a4.88,4.88,0,0,1,.313-1.977,4.575,4.575,0,0,1,2.915-2.495,5.471,5.471,0,0,1,1.5-.223h7.015ZM33.045,12.3V32.26c0,.141,0,.284-.014.425a4.211,4.211,0,0,1-.851,2.1,5.144,5.144,0,0,1-2.712,1.666,8.6,8.6,0,0,1-2.035.134H21.285l-.005-8.777a6.778,6.778,0,0,0,.778.4,8.4,8.4,0,0,0,1.785.556,15.592,15.592,0,0,0,1.575.2c.362.031.719.036,1.146.036h.422a15.371,15.371,0,0,0,1.555-.054,25.547,25.547,0,0,0,2.725-.407.746.746,0,0,0,.623-.706v-.76a.71.71,0,0,0-.369-.606.9.9,0,0,0-.773-.056A10.72,10.72,0,0,1,28,27.051a5.8,5.8,0,0,1-1.986-.17h-.005a2.651,2.651,0,0,1-1.485-1.055,2.822,2.822,0,0,1-.264-2.194,2.236,2.236,0,0,1,1.148-1.412,3.911,3.911,0,0,1,1.475-.409,7.3,7.3,0,0,1,1.59.025,9.628,9.628,0,0,1,2.3.572.911.911,0,0,0,.773-.06.708.708,0,0,0,.368-.606V21a.752.752,0,0,0-.648-.711l-.183-.031-.223-.036a23.644,23.644,0,0,0-2.889-.346c-.476-.018-1-.025-1.539-.016a12.466,12.466,0,0,0-1.571.094l-.208.031a13.161,13.161,0,0,0-1.378.252,6.966,6.966,0,0,0-2,.827l-.005-4.741a5.517,5.517,0,0,1,.282-2.286,4.589,4.589,0,0,1,3-2.585,7.447,7.447,0,0,1,2.223-.206h6.269V12.3Zm13.12-.15V32.206a4.1,4.1,0,0,1-.639,2.268,4.835,4.835,0,0,1-2.98,1.986,8.586,8.586,0,0,1-1.964.121H34.423l-.009-7.875a.92.92,0,0,0,.355.072h5.666c.148,0,.3,0,.449.007l.467.005c.273,0,.5-.009.7-.027a3.932,3.932,0,0,0,1.834-.529,2.242,2.242,0,0,0,.789-.724,1.939,1.939,0,0,0,.333-1.378,2.4,2.4,0,0,0-1.879-1.876,2.418,2.418,0,0,0,.956-.762,1.947,1.947,0,0,0-.119-2.449l-.016-.018a3.292,3.292,0,0,0-1.977-.9,8.675,8.675,0,0,0-1.133-.054H34.756a.9.9,0,0,0-.351.072L34.4,15.483a3.865,3.865,0,0,1,.536-1.97A4.41,4.41,0,0,1,36.2,12.156a5.955,5.955,0,0,1,1.47-.706,9.944,9.944,0,0,1,2.158-.208l6.336,0Zm-6.351,11a.971.971,0,0,1-.71.248l-.246,0-1.923,0V21.921h1.986a2.21,2.21,0,0,1,.482.027.787.787,0,0,1,.561.442.7.7,0,0,1-.15.76Zm.521,2.906c0,.232-.152.829-1.119.829l-2.281,0V25.232h2.238a1.428,1.428,0,0,1,.775.15.778.778,0,0,1,.387.673Z" transform="translate(7314.129 8244.106)" fill="#485ba2"/>
    <g id="layer1" transform="translate(7378.309 8248.106)">
      <g id="g6662" transform="translate(0 0.398)">
        <path id="Exclusion_1" data-name="Exclusion 1" d="M57.661,39.454H3.6a3.6,3.6,0,0,1-3.6-3.6V3.6A3.6,3.6,0,0,1,3.6,0H57.661a3.6,3.6,0,0,1,3.6,3.6V35.856A3.6,3.6,0,0,1,57.661,39.454Zm-18.5-11.111a2.539,2.539,0,0,0-2.153,1.021,4.847,4.847,0,0,0-.76,2.921,5.493,5.493,0,0,0,.433,2.339A2.888,2.888,0,0,0,37.709,35.9a2.925,2.925,0,0,0,1.535.363,2.484,2.484,0,0,0,1.276-.3,2.4,2.4,0,0,0,.839-.883,4.522,4.522,0,0,0,.5-1.457L40.294,33a2.776,2.776,0,0,1-.38,1.107.879.879,0,0,1-.772.382.917.917,0,0,1-.818-.472,3.665,3.665,0,0,1-.291-1.747,3.521,3.521,0,0,1,.244-1.509,1.011,1.011,0,0,1,.928-.647.848.848,0,0,1,.483.146,1.171,1.171,0,0,1,.365.418,2.12,2.12,0,0,1,.173.512l1.573-.464a3.631,3.631,0,0,0-.926-1.8A2.414,2.414,0,0,0,39.162,28.344ZM20.219,34.4l-1.589.2a2.07,2.07,0,0,0,.623,1.232,2.45,2.45,0,0,0,1.63.433,2.593,2.593,0,0,0,1.279-.268,1.659,1.659,0,0,0,.688-.724,2.155,2.155,0,0,0,.218-.934,1.869,1.869,0,0,0-.206-.872,1.445,1.445,0,0,0-.6-.611,3.726,3.726,0,0,0-1.187-.335,2.022,2.022,0,0,1-.684-.187.349.349,0,0,1-.157-.309.432.432,0,0,1,.124-.31.535.535,0,0,1,.4-.128.667.667,0,0,1,.456.167.735.735,0,0,1,.2.392l1.517-.2a2.7,2.7,0,0,0-.4-.861,1.431,1.431,0,0,0-.594-.47,3.006,3.006,0,0,0-1.1-.151,2.718,2.718,0,0,0-1.128.2,1.5,1.5,0,0,0-.661.593,1.948,1.948,0,0,0-.018,1.838,1.346,1.346,0,0,0,.546.556A5.781,5.781,0,0,0,20.733,34a2.629,2.629,0,0,1,.688.22.408.408,0,0,1,.181.355.457.457,0,0,1-.138.339.664.664,0,0,1-.5.184.674.674,0,0,1-.472-.162,1.1,1.1,0,0,1-.274-.538Zm32.9-3.937a1.486,1.486,0,0,0-1.264.731,3.758,3.758,0,0,0-.5,2.11,4.487,4.487,0,0,0,.451,2.093,1.417,1.417,0,0,0,1.3.862,1.325,1.325,0,0,0,.77-.24,2.379,2.379,0,0,0,.574-.706v.82h1.5V28.474H54.335v2.652a1.643,1.643,0,0,0-.54-.5A1.4,1.4,0,0,0,53.116,30.459ZM44.9,31.722a.514.514,0,0,1,.428.157.927.927,0,0,1,.121.548,4.551,4.551,0,0,1-.565.253c-.18.065-.573.179-1.168.337a1.732,1.732,0,0,0-1.03.606,1.8,1.8,0,0,0-.279,1.039,1.7,1.7,0,0,0,.387,1.133,1.407,1.407,0,0,0,1.134.46,2.04,2.04,0,0,0,.986-.23,2.165,2.165,0,0,0,.625-.574,3.2,3.2,0,0,0,.055.353,2.329,2.329,0,0,0,.118.326h1.5a3.35,3.35,0,0,1-.164-.566,4,4,0,0,1-.037-.614V32.5a3.153,3.153,0,0,0-.118-.823,1.7,1.7,0,0,0-.322-.665,1.367,1.367,0,0,0-.727-.446,5.029,5.029,0,0,0-1.156-.107,3.757,3.757,0,0,0-.833.088,1.652,1.652,0,0,0-.606.251,1.585,1.585,0,0,0-.47.53,2.751,2.751,0,0,0-.249.838l1.529.214a.962.962,0,0,1,.248-.491A.9.9,0,0,1,44.9,31.722ZM29.562,30.459a2.083,2.083,0,0,0-1.732.8,3.339,3.339,0,0,0-.627,2.1,3.784,3.784,0,0,0,.312,1.59,2.29,2.29,0,0,0,.788.986,2.37,2.37,0,0,0,1.305.311,2.519,2.519,0,0,0,1.466-.364,2.782,2.782,0,0,0,.873-1.2L30.371,34.5a1.25,1.25,0,0,1-.279.35.745.745,0,0,1-.448.157.7.7,0,0,1-.6-.361,1.661,1.661,0,0,1-.209-.761h3.208v-.24a4.929,4.929,0,0,0-.271-1.781,2.243,2.243,0,0,0-.79-1.044A2.454,2.454,0,0,0,29.562,30.459Zm-5.991.125v1.551h.59v1.953a4.79,4.79,0,0,0,.136,1.345,1.191,1.191,0,0,0,.418.618,1.528,1.528,0,0,0,.881.2,3.989,3.989,0,0,0,1.108-.173l-.118-1.467a1.387,1.387,0,0,1-.5.136.279.279,0,0,1-.275-.178,1.378,1.378,0,0,1-.051-.47V32.134h.881V30.584h-.881v-2.11l-1.6,1.091v1.019Zm-7.74,1.138a.514.514,0,0,1,.428.157.919.919,0,0,1,.122.548,4.511,4.511,0,0,1-.566.253c-.178.065-.56.175-1.167.337a1.732,1.732,0,0,0-1.031.606,1.8,1.8,0,0,0-.279,1.039,1.7,1.7,0,0,0,.387,1.133,1.407,1.407,0,0,0,1.134.46,2.047,2.047,0,0,0,.987-.23,2.166,2.166,0,0,0,.625-.574,3.378,3.378,0,0,0,.055.353,2.471,2.471,0,0,0,.118.326h1.5a3.3,3.3,0,0,1-.163-.566,3.871,3.871,0,0,1-.038-.614V32.5a3.153,3.153,0,0,0-.118-.823,1.687,1.687,0,0,0-.322-.665,1.367,1.367,0,0,0-.727-.446,5.013,5.013,0,0,0-1.156-.107,3.761,3.761,0,0,0-.833.088,1.652,1.652,0,0,0-.606.251,1.585,1.585,0,0,0-.47.53,2.751,2.751,0,0,0-.249.838l1.529.214a.958.958,0,0,1,.248-.491A.9.9,0,0,1,15.831,31.722ZM48,30.584v5.545H49.61V34.27a4.531,4.531,0,0,1,.248-1.817.537.537,0,0,1,.488-.345,1.026,1.026,0,0,1,.448.157l.495-1.514a1.39,1.39,0,0,0-.774-.292.79.79,0,0,0-.568.221,2.233,2.233,0,0,0-.446.812v-.908Zm-15.205,0v5.545h1.608V34.27a4.52,4.52,0,0,1,.247-1.817.536.536,0,0,1,.487-.345,1.019,1.019,0,0,1,.448.157l.5-1.514a1.4,1.4,0,0,0-.775-.292.793.793,0,0,0-.568.221,2.259,2.259,0,0,0-.446.812v-.908ZM11.053,30.3h0v5.827H12.51V28.474H10.174l-.9,4.657-.9-4.657H6.027v7.654H7.486V30.291L8.61,36.129H9.927Zm19.48-7.256h0a10.249,10.249,0,1,0,0-14.309,10.249,10.249,0,1,0,0,14.309Zm14,12.028a.468.468,0,0,1-.387-.159.672.672,0,0,1,0-.8,1.425,1.425,0,0,1,.617-.339,6.214,6.214,0,0,0,.688-.277v.339a1.831,1.831,0,0,1-.1.645.964.964,0,0,1-.327.42A.814.814,0,0,1,44.535,35.074Zm-29.073,0a.469.469,0,0,1-.388-.159.67.67,0,0,1,0-.8,1.421,1.421,0,0,1,.617-.339,6.307,6.307,0,0,0,.688-.277v.339a1.827,1.827,0,0,1-.1.645.964.964,0,0,1-.327.42A.812.812,0,0,1,15.462,35.074ZM53.631,34.7a.565.565,0,0,1-.482-.316,1.969,1.969,0,0,1-.194-1,2.09,2.09,0,0,1,.189-1.033.55.55,0,0,1,.468-.309.617.617,0,0,1,.527.321,1.827,1.827,0,0,1,.208.974,2,2,0,0,1-.2,1.04A.6.6,0,0,1,53.631,34.7Zm-23.22-1.833H28.835a1.811,1.811,0,0,1,.184-.746.688.688,0,0,1,.609-.4.641.641,0,0,1,.533.266,1.713,1.713,0,0,1,.249.881Zm.121-9.819h0a10.251,10.251,0,0,1,0-14.308,10.249,10.249,0,0,1,0,14.308Z" transform="translate(0 0)" fill="#485ba2"/>
      </g>
      <g id="Group_252" data-name="Group 252" transform="translate(75.331 0)">
        <path id="Path_727" data-name="Path 727" d="M51.906,4H3.708A3.711,3.711,0,0,0,0,7.708V41.075a3.711,3.711,0,0,0,3.708,3.708h48.2a3.711,3.711,0,0,0,3.708-3.708V7.708A3.711,3.711,0,0,0,51.906,4ZM53.76,41.075a1.857,1.857,0,0,1-1.854,1.854H3.708a1.857,1.857,0,0,1-1.854-1.854V7.708A1.857,1.857,0,0,1,3.708,5.854h48.2A1.857,1.857,0,0,1,53.76,7.708Z" transform="translate(0 -4)" fill="#485ba2"/>
        <path id="Path_728" data-name="Path 728" d="M9.959,15.956a.371.371,0,0,0,.423.1.315.315,0,0,0,.2-.36L10,13.158l0-.017a1.283,1.283,0,0,0-1.351-.851H8.629l-3.277,0a.34.34,0,0,0-.343.265.319.319,0,0,0,.224.358A10.214,10.214,0,0,1,9.96,15.956Z" transform="translate(4.273 3.075)" fill="#485ba2"/>
        <path id="Path_729" data-name="Path 729" d="M27.319,12.3H25.187a1.57,1.57,0,0,0-1.637.877l-4.418,9.234a.3.3,0,0,0,.026.306.354.354,0,0,0,.293.146h2.5a.35.35,0,0,0,.326-.208c.306-.749.5-1.225.569-1.379h1.806l2.193,0c.072.28.248,1.023.321,1.329a.344.344,0,0,0,.341.254h2.182a.359.359,0,0,0,.271-.12.3.3,0,0,0,.07-.271l-2.373-9.92a.343.343,0,0,0-.341-.252Zm-3.57,6.813,1.659-3.963.211.912.723,3.051h-2.6Z" transform="translate(16.31 3.089)" fill="#485ba2"/>
        <path id="Path_730" data-name="Path 730" d="M16.657,12.447a.358.358,0,0,0-.291-.145h-2.54a.349.349,0,0,0-.324.2l-2.972,7-.319-1.066a.263.263,0,0,0-.017-.043,11.2,11.2,0,0,0-3.487-3.822.374.374,0,0,0-.41-.011.309.309,0,0,0-.137.356l2.44,7.7a.347.347,0,0,0,.334.23l2.814,0a.352.352,0,0,0,.321-.193l4.616-9.907a.3.3,0,0,0-.03-.3Z" transform="translate(5.248 3.088)" fill="#485ba2"/>
        <path id="Path_731" data-name="Path 731" d="M16.206,12.3H13.79a.341.341,0,0,0-.345.267l-1.833,9.927a.305.305,0,0,0,.078.261.356.356,0,0,0,.267.115h2.414a.343.343,0,0,0,.345-.269l1.835-9.925a.3.3,0,0,0-.078-.261.361.361,0,0,0-.267-.115Z" transform="translate(9.91 3.084)" fill="#485ba2"/>
        <path id="Path_732" data-name="Path 732" d="M20.488,14.432h.093a5.906,5.906,0,0,1,2.034.347.374.374,0,0,0,.3-.02.324.324,0,0,0,.172-.226L23.365,13a.319.319,0,0,0-.237-.36,8.591,8.591,0,0,0-2.41-.337c-2.979,0-5.07,1.383-5.087,3.363-.019,1.464,1.5,2.282,2.636,2.77,1.172.5,1.565.818,1.559,1.264-.007.684-.938.994-1.8.994a6.814,6.814,0,0,1-2.821-.528.375.375,0,0,0-.3.015.324.324,0,0,0-.176.228l-.3,1.613a.321.321,0,0,0,.228.358,11.066,11.066,0,0,0,3.077.445h0c3.161,0,5.218-1.37,5.241-3.485.011-1.162-.792-2.039-2.521-2.762-1.057-.475-1.705-.79-1.7-1.272,0-.434.593-.871,1.731-.871Z" transform="translate(12.317 3.09)" fill="#485ba2"/>
      </g>
    </g>
  </g>
</svg>
