<svg xmlns="http://www.w3.org/2000/svg" width="340" height="340" viewBox="0 0 340 340">
  <g id="Group_6329" data-name="Group 6329" transform="translate(-796 -5229.5)">
    <circle id="Ellipse_91" data-name="Ellipse 91" cx="170" cy="170" r="170" transform="translate(796 5229.5)" fill="#fff"/>
    <g id="co" transform="translate(786.004 5223.437)">
      <path id="Path_5984" data-name="Path 5984" d="M301.43,177.17A35.115,35.115,0,0,0,278.2,143.321c-3.829-1.378-4.142-1.824-4.182-5.99A19.472,19.472,0,0,0,248.45,118.8c-3.548,1.113-3.981.948-6.38-1.973-13.789-16.786-31.591-24.271-53.1-21.824-16.5,1.876-29.815,9.944-39.855,23.258a23.768,23.768,0,0,1-2.081,2.672c-1.808,1.784-3.612.98-5.5-.056a23.3,23.3,0,0,0-31.735,8.746,31.933,31.933,0,0,0-2.808,7.425c-.892,3.278-1.462,3.985-4.91,4.13-11.94.5-21.567,5.5-28.236,15.388-7.678,11.374-8.558,23.628-2.246,35.813,6.388,12.334,16.926,18.7,30.9,19.152.5.016,1,.012,1.5.008a3.728,3.728,0,0,1,2.258-.715c4.259-.032,8.891-.366,12.286-3.1.016-.088.036-.173.06-.257,0-.04,0-.08,0-.121a3.723,3.723,0,0,1,3.66-3.5,3.413,3.413,0,0,1,2.9,1.43,93.821,93.821,0,0,0,24.492,3.2,8.825,8.825,0,0,1,.072-1.262,3.64,3.64,0,0,1,3.8-3.335,3.456,3.456,0,0,1,3.5,3.355,15.01,15.01,0,0,1,.084,1.591,38.758,38.758,0,0,0,23.68.3c-.012-.932-.129-2.061.35-2.648.876-1.073,2.214-2.427,3.363-2.435s2.539,1.318,3.379,2.4a4.431,4.431,0,0,1,.378,2.615,66.191,66.191,0,0,0,11.515,2.17c3.427.3,8.184.755,11.209-1.37a4.088,4.088,0,0,1,1.016-1.687c.257-2.957,1.4-4.307,3.632-4.311,2.35,0,3.552,1.6,3.712,4.889,7.557,2.539,17.035,5.3,23.764,1.29v-.382c0-.808-.008-1.619.056-2.423a3.327,3.327,0,0,1,3.451-3.347,3.485,3.485,0,0,1,3.756,3.069,11.22,11.22,0,0,1,.084,2.415v.068c5.026,1.338,10.2,1.382,15.432,1.382a3.982,3.982,0,0,1,1.635.329,44.948,44.948,0,0,0,9.369-1.374C291.157,205.611,301.109,192.043,301.43,177.17Zm-140.011,7.65a19.555,19.555,0,0,1-15.179,6.276A24.047,24.047,0,0,1,122.521,169c-1.1-11.768,7.324-22.973,19.321-25.367a23.074,23.074,0,0,1,17.208,3.114c2.391,1.491,3.09,3.487,1.916,5.436s-3.238,2.258-5.693.876c-10.153-5.7-22.077-.972-24.853,10a15.724,15.724,0,0,0,4.512,15.97c4.383,4.247,9.715,5.785,15.6,4.082a17.151,17.151,0,0,0,5.645-3.519c2.125-1.736,3.925-2.069,5.576-.53C163.449,180.649,163.356,182.738,161.42,184.819Zm31.438,6.28a23.973,23.973,0,0,1,.129-47.947,23.973,23.973,0,1,1-.129,47.947Zm45.765-34.512c-3.789.1-7.585.141-11.37,0-3.672-.141-5.243-3.25-3.174-6.28,2.455-3.592,5.131-7.039,7.65-10.591a10.526,10.526,0,0,0,1.82-3.363c.189-.775-.366-2.431-.8-2.511-.888-.161-1.924.466-2.893.8-.1.036-.133.281-.2.422-1.4,2.824-3.134,3.7-5.243,2.64-2.069-1.037-2.587-3.19-1.414-5.878a9.559,9.559,0,0,1,12.3-5.094,9.254,9.254,0,0,1,5.255,12.145,36.167,36.167,0,0,1-3.2,5.661c-.932,1.483-2.025,2.865-3.383,4.757,1.949,0,3.319-.084,4.677.02a3.644,3.644,0,0,1,3.572,3.8A3.475,3.475,0,0,1,238.623,156.587Z" transform="translate(-10.58 -11.064)" fill="#e8f4fb"/>
      <path id="Path_5985" data-name="Path 5985" d="M49.72,160.481c.647-2.652,1.073-5.38,1.977-7.939,5.966-16.926,17.8-26.838,35.62-29.449,1.229-.181,2.25-.281,2.712-1.828A30.827,30.827,0,0,1,131.9,102.037a10.287,10.287,0,0,0,1.024.309,68.416,68.416,0,0,1,15.355-14.672,65.6,65.6,0,0,1,86.709,10.86,3.514,3.514,0,0,0,3.841,1.442c15.721-2.844,29.506,7.192,31.715,23.017a4.3,4.3,0,0,0,2.973,3.765c16.352,7.457,26.549,25.379,24.5,42.78-2.262,19.176-15.918,34.1-34.572,37.517a76.014,76.014,0,0,1-11.081.848c-2.672.092-4.2-1.374-4.243-3.612-.04-2.282,1.386-3.532,4.09-3.813,4.713-.494,9.606-.446,14.09-1.756,14.279-4.174,24.23-17.742,24.552-32.615a35.115,35.115,0,0,0-23.226-33.849c-3.829-1.378-4.142-1.824-4.182-5.99a19.473,19.473,0,0,0-25.572-18.529c-3.548,1.113-3.981.948-6.38-1.973C217.7,88.979,199.9,81.494,178.385,83.941c-16.5,1.876-29.815,9.944-39.855,23.258a23.41,23.41,0,0,1-2.081,2.672c-1.808,1.784-3.612.98-5.5-.056a23.3,23.3,0,0,0-31.735,8.746,31.932,31.932,0,0,0-2.808,7.425c-.9,3.278-1.462,3.985-4.91,4.13-11.94.5-21.567,5.5-28.236,15.388-7.678,11.374-8.558,23.628-2.246,35.813,6.388,12.334,16.926,18.7,30.9,19.152,1.374.044,2.756-.052,4.122.068,2.4.209,3.7,1.547,3.7,3.652.008,2.17-1.45,3.568-3.9,3.744a42.921,42.921,0,0,1-42.491-25.512c-1.675-3.877-2.439-8.148-3.624-12.238Q49.72,165.333,49.72,160.481Z" fill="#455066"/>
      <path id="Path_5986" data-name="Path 5986" d="M344.124,263.466a23.973,23.973,0,0,1,.129-47.947,23.973,23.973,0,1,1-.129,47.947Zm.072-40.5A16.565,16.565,0,1,0,360.781,239.6,16.611,16.611,0,0,0,344.2,222.968Z" transform="translate(-161.846 -83.43)" fill="#455066"/>
      <path id="Path_5987" data-name="Path 5987" d="M262.9,406.946c1.434-1.507,2.832-3.049,4.319-4.5,1.816-1.776,4.078-1.868,5.576-.325,1.466,1.507,1.418,3.64-.3,5.4-3.672,3.757-7.38,7.485-11.149,11.145-1.965,1.908-3.764,1.876-5.741-.052q-5.635-5.508-11.145-11.149c-1.76-1.8-1.752-3.813-.2-5.376,1.462-1.47,3.676-1.446,5.408.213,1.559,1.495,2.985,3.122,4.958,5.207.068-1.587.141-2.423.141-3.262q.012-27.89.008-55.781a16.785,16.785,0,0,1,.06-2.423,3.64,3.64,0,0,1,3.8-3.335,3.456,3.456,0,0,1,3.5,3.355,22.634,22.634,0,0,1,.088,2.664q.006,27.529,0,55.054v2.865C262.448,406.741,262.677,406.841,262.9,406.946Z" transform="translate(-115.698 -159.515)" fill="#455066"/>
      <path id="Path_5988" data-name="Path 5988" d="M409.788,406.653v-58.32c0-3.929,1.145-5.669,3.7-5.673,2.531,0,3.744,1.824,3.744,5.653v58.348l.591.35c1.41-1.495,2.78-3.033,4.247-4.476,1.864-1.836,4.034-2.009,5.581-.554,1.724,1.623,1.647,3.7-.354,5.733q-5.351,5.448-10.807,10.8c-2.077,2.029-3.877,2.045-5.914.048q-5.544-5.43-10.98-10.972c-1.824-1.852-1.888-4.05-.3-5.572,1.535-1.474,3.744-1.318,5.576.49,1.434,1.418,2.776,2.933,4.162,4.407C409.278,406.822,409.531,406.737,409.788,406.653Z" transform="translate(-208.451 -159.491)" fill="#455066"/>
      <path id="Path_5989" data-name="Path 5989" d="M228.175,263.448a24.05,24.05,0,0,1-23.72-22.1c-1.1-11.768,7.324-22.973,19.321-25.367a23.074,23.074,0,0,1,17.208,3.114c2.391,1.491,3.09,3.487,1.916,5.436s-3.238,2.258-5.693.876c-10.153-5.7-22.077-.972-24.849,10a15.724,15.724,0,0,0,4.512,15.97c4.383,4.247,9.715,5.785,15.6,4.082a17.151,17.151,0,0,0,5.645-3.519c2.125-1.736,3.925-2.069,5.576-.53,1.7,1.583,1.6,3.672-.333,5.753A19.583,19.583,0,0,1,228.175,263.448Z" transform="translate(-92.51 -83.413)" fill="#455066"/>
      <path id="Path_5990" data-name="Path 5990" d="M332.231,387.5v-2.535q0-18.3.012-36.6c0-.96-.161-2.194.35-2.812.876-1.073,2.214-2.427,3.363-2.435s2.539,1.318,3.379,2.4c.542.7.37,2.013.37,3.049q.03,18.182.012,36.36v2.559c.2.108.4.221.6.329,1.418-1.491,2.8-3.021,4.259-4.468,1.84-1.816,4.042-1.993,5.577-.53,1.7,1.611,1.595,3.7-.406,5.737q-5.352,5.448-10.8,10.8c-2.081,2.029-3.853,2.033-5.91.02q-5.55-5.418-10.972-10.964c-1.876-1.912-1.924-3.961-.293-5.556,1.523-1.487,3.736-1.334,5.581.466,1.478,1.442,2.885,2.953,4.323,4.435C331.858,387.662,332.042,387.581,332.231,387.5Z" transform="translate(-162.046 -159.76)" fill="#455066"/>
      <path id="Path_5991" data-name="Path 5991" d="M185.42,387.487c1.507-1.559,2.973-3.166,4.536-4.668A3.662,3.662,0,1,1,195.09,388q-5.508,5.629-11.141,11.137c-1.961,1.912-3.773,1.92-5.721.016q-5.635-5.5-11.141-11.137c-1.764-1.8-1.8-3.785-.273-5.368a3.644,3.644,0,0,1,5.392.121c1.575,1.5,2.993,3.166,4.48,4.761.233-.068.462-.141.7-.209V348.066a18.289,18.289,0,0,1,.028-1.936,3.723,3.723,0,0,1,3.66-3.5,3.537,3.537,0,0,1,3.612,3.479c.076.8.052,1.615.052,2.423q.006,18.055,0,36.111v2.575C184.966,387.3,185.191,387.395,185.42,387.487Z" transform="translate(-69.393 -159.473)" fill="#455066"/>
      <path id="Path_5992" data-name="Path 5992" d="M495.3,387.6c1.426-1.5,2.808-3.049,4.287-4.5,1.88-1.84,4.018-1.993,5.576-.5,1.687,1.615,1.591,3.712-.394,5.725q-5.351,5.442-10.8,10.791c-2.073,2.025-3.861,2.021-5.9.02q-5.532-5.43-10.968-10.964c-1.772-1.8-1.852-4.09-.305-5.572,1.478-1.418,3.7-1.346,5.4.346,1.531,1.531,2.909,3.21,4.355,4.825.269-.137.534-.273.8-.406v-2.511q0-18.176,0-36.352c0-.808-.008-1.619.056-2.423a3.327,3.327,0,0,1,3.451-3.347,3.485,3.485,0,0,1,3.757,3.069,11.22,11.22,0,0,1,.084,2.415q.006,19.5,0,39Z" transform="translate(-254.838 -159.532)" fill="#455066"/>
      <path id="Path_5993" data-name="Path 5993" d="M464.723,196.187c1.949,0,3.319-.084,4.677.02a3.644,3.644,0,0,1,3.572,3.8,3.481,3.481,0,0,1-3.6,3.475c-3.789.1-7.585.141-11.37,0-3.672-.141-5.243-3.25-3.174-6.28,2.455-3.592,5.13-7.039,7.65-10.59a10.527,10.527,0,0,0,1.82-3.363c.189-.775-.366-2.431-.8-2.511-.888-.161-1.924.466-2.893.8-.1.036-.133.281-.2.422-1.4,2.824-3.134,3.7-5.243,2.64-2.069-1.037-2.587-3.19-1.414-5.878a9.559,9.559,0,0,1,12.3-5.094,9.254,9.254,0,0,1,5.255,12.145,36.171,36.171,0,0,1-3.2,5.661C467.173,192.913,466.081,194.295,464.723,196.187Z" transform="translate(-241.332 -57.96)" fill="#455066"/>
      <path id="Path_5994" data-name="Path 5994" d="M355.019,234.06a16.565,16.565,0,1,1-16.669,16.6A16.509,16.509,0,0,1,355.019,234.06Z" transform="translate(-172.669 -94.523)" fill="#e8f4fb"/>
    </g>
  </g>
</svg>
