<svg xmlns="http://www.w3.org/2000/svg" xmlns:xlink="http://www.w3.org/1999/xlink" width="27.246" height="33.309" viewBox="0 0 27.246 33.309">
  <defs>
    <clipPath id="clip-path">
      <rect id="Rectangle_303" data-name="Rectangle 303" width="27.246" height="33.309" fill="#fff"/>
    </clipPath>
  </defs>
  <g id="Group_6301" data-name="Group 6301" transform="translate(-9.446 -4)">
    <g id="Group_6300" data-name="Group 6300" transform="translate(9.446 4)" clip-path="url(#clip-path)">
      <path id="Path_6127" data-name="Path 6127" d="M24.221,15.158c.343,0,.645-.014.946,0a2.217,2.217,0,0,1,2.054,2.029c.01.151.02.3.02.454q0,6.584,0,13.167a2.379,2.379,0,0,1-.893,2.025,2.171,2.171,0,0,1-1.162.454c-.14.013-.281.015-.422.015q-11.151,0-22.3,0A2.246,2.246,0,0,1,.244,32.026,2.7,2.7,0,0,1,.013,30.9Q-.01,24.217.006,17.536a2.24,2.24,0,0,1,2.406-2.39c.192,0,.385,0,.611,0,0-.163,0-.29,0-.416.015-1.647-.015-3.3.056-4.94A9.621,9.621,0,0,1,5.468,3.877,10.536,10.536,0,0,1,10.258.541,10.694,10.694,0,0,1,16.343.353a10.491,10.491,0,0,1,5.6,3.734,10.233,10.233,0,0,1,2.275,6.718c-.005,1.43,0,2.86,0,4.353M7.634,15.121h12.02c0-1.713.043-3.4-.022-5.09a5.2,5.2,0,0,0-.475-1.872,5.967,5.967,0,0,0-6.423-3.542A5.886,5.886,0,0,0,7.661,9.74c-.141,1.775-.027,3.569-.027,5.382" transform="translate(0 0)" fill="#fff"/>
    </g>
  </g>
</svg>
