<svg xmlns="http://www.w3.org/2000/svg" xmlns:xlink="http://www.w3.org/1999/xlink" width="1920" height="318" viewBox="0 0 1920 318">
  <defs>
    <clipPath id="clip-path">
      <rect id="Rectangle_22" data-name="Rectangle 22" width="17.97" height="17.224" fill="#3d5065"/>
    </clipPath>
  </defs>
  <g id="Group_6291" data-name="Group 6291" transform="translate(0 -7441)">
    <g id="Group_11" data-name="Group 11" transform="translate(925 3226)">
      <rect id="Rectangle_2" data-name="Rectangle 2" width="1920" height="318" transform="translate(-925 4215)" fill="#3d4f64"/>
      <g id="Group_6321" data-name="Group 6321" transform="translate(5 -18)">
        <g id="Group_14" data-name="Group 14" transform="translate(-131 31)">
          <rect id="Rectangle_3" data-name="Rectangle 3" width="374" height="235" rx="7" transform="translate(-693 4244)" fill="#fff"/>
          <g id="Stars" transform="translate(-556.6 4268.455)">
            <g id="Group_4" data-name="Group 4" transform="translate(0 0)">
              <g id="Group_3" data-name="Group 3" clip-path="url(#clip-path)">
                <path id="Path_374" data-name="Path 374" d="M17.97,6.987c-.134.488-.556.733-.9,1.038-1.075.955-2.16,1.9-3.244,2.843a.207.207,0,0,0-.073.239c.372,1.625.738,3.252,1.108,4.877A.962.962,0,0,1,13.4,17.051Q11.26,15.769,9.12,14.487a.22.22,0,0,0-.267,0q-2.146,1.289-4.3,2.569a.951.951,0,0,1-1.482-.729,2.026,2.026,0,0,1,.1-.637q.515-2.277,1.039-4.552a.272.272,0,0,0-.108-.309Q2.23,9.194.361,7.55A.955.955,0,0,1,.883,5.856q.488-.05.977-.095L4.512,5.52c.448-.04.9-.083,1.345-.114a.287.287,0,0,0,.282-.2C6.779,3.693,7.427,2.182,8.071.67A.961.961,0,0,1,9.585.215a1.141,1.141,0,0,1,.324.47c.648,1.517,1.3,3.033,1.943,4.552a.237.237,0,0,0,.23.165q1.641.142,3.282.289c.582.052,1.163.105,1.744.168a.923.923,0,0,1,.829.7.831.831,0,0,0,.034.078Z" transform="translate(0 0)" fill="#3d5065"/>
              </g>
            </g>
            <g id="Group_5" data-name="Group 5" transform="translate(20.808 0)">
              <g id="Group_3-2" data-name="Group 3" clip-path="url(#clip-path)">
                <path id="Path_374-2" data-name="Path 374" d="M17.97,6.987c-.134.488-.556.733-.9,1.038-1.075.955-2.16,1.9-3.244,2.843a.207.207,0,0,0-.073.239c.372,1.625.738,3.252,1.108,4.877A.962.962,0,0,1,13.4,17.051Q11.26,15.769,9.12,14.487a.22.22,0,0,0-.267,0q-2.146,1.289-4.3,2.569a.951.951,0,0,1-1.482-.729,2.026,2.026,0,0,1,.1-.637q.515-2.277,1.039-4.552a.272.272,0,0,0-.108-.309Q2.23,9.194.361,7.55A.955.955,0,0,1,.883,5.856q.488-.05.977-.095L4.512,5.52c.448-.04.9-.083,1.345-.114a.287.287,0,0,0,.282-.2C6.779,3.693,7.427,2.182,8.071.67A.961.961,0,0,1,9.585.215a1.141,1.141,0,0,1,.324.47c.648,1.517,1.3,3.033,1.943,4.552a.237.237,0,0,0,.23.165q1.641.142,3.282.289c.582.052,1.163.105,1.744.168a.923.923,0,0,1,.829.7.831.831,0,0,0,.034.078Z" transform="translate(0 0)" fill="#3d5065"/>
              </g>
            </g>
            <g id="Group_6" data-name="Group 6" transform="translate(41.615 0)">
              <g id="Group_3-3" data-name="Group 3" clip-path="url(#clip-path)">
                <path id="Path_374-3" data-name="Path 374" d="M17.97,6.987c-.134.488-.556.733-.9,1.038-1.075.955-2.16,1.9-3.244,2.843a.207.207,0,0,0-.073.239c.372,1.625.738,3.252,1.108,4.877A.962.962,0,0,1,13.4,17.051Q11.26,15.769,9.12,14.487a.22.22,0,0,0-.267,0q-2.146,1.289-4.3,2.569a.951.951,0,0,1-1.482-.729,2.026,2.026,0,0,1,.1-.637q.515-2.277,1.039-4.552a.272.272,0,0,0-.108-.309Q2.23,9.194.361,7.55A.955.955,0,0,1,.883,5.856q.488-.05.977-.095L4.512,5.52c.448-.04.9-.083,1.345-.114a.287.287,0,0,0,.282-.2C6.779,3.693,7.427,2.182,8.071.67A.961.961,0,0,1,9.585.215a1.141,1.141,0,0,1,.324.47c.648,1.517,1.3,3.033,1.943,4.552a.237.237,0,0,0,.23.165q1.641.142,3.282.289c.582.052,1.163.105,1.744.168a.923.923,0,0,1,.829.7.831.831,0,0,0,.034.078Z" transform="translate(0 0)" fill="#3d5065"/>
              </g>
            </g>
            <g id="Group_7" data-name="Group 7" transform="translate(62.423 0)">
              <g id="Group_3-4" data-name="Group 3" clip-path="url(#clip-path)">
                <path id="Path_374-4" data-name="Path 374" d="M17.97,6.987c-.134.488-.556.733-.9,1.038-1.075.955-2.16,1.9-3.244,2.843a.207.207,0,0,0-.073.239c.372,1.625.738,3.252,1.108,4.877A.962.962,0,0,1,13.4,17.051Q11.26,15.769,9.12,14.487a.22.22,0,0,0-.267,0q-2.146,1.289-4.3,2.569a.951.951,0,0,1-1.482-.729,2.026,2.026,0,0,1,.1-.637q.515-2.277,1.039-4.552a.272.272,0,0,0-.108-.309Q2.23,9.194.361,7.55A.955.955,0,0,1,.883,5.856q.488-.05.977-.095L4.512,5.52c.448-.04.9-.083,1.345-.114a.287.287,0,0,0,.282-.2C6.779,3.693,7.427,2.182,8.071.67A.961.961,0,0,1,9.585.215a1.141,1.141,0,0,1,.324.47c.648,1.517,1.3,3.033,1.943,4.552a.237.237,0,0,0,.23.165q1.641.142,3.282.289c.582.052,1.163.105,1.744.168a.923.923,0,0,1,.829.7.831.831,0,0,0,.034.078Z" transform="translate(0 0)" fill="#3d5065"/>
              </g>
            </g>
            <g id="Group_8" data-name="Group 8" transform="translate(83.231 0)">
              <g id="Group_3-5" data-name="Group 3" clip-path="url(#clip-path)">
                <path id="Path_374-5" data-name="Path 374" d="M17.97,6.987c-.134.488-.556.733-.9,1.038-1.075.955-2.16,1.9-3.244,2.843a.207.207,0,0,0-.073.239c.372,1.625.738,3.252,1.108,4.877A.962.962,0,0,1,13.4,17.051Q11.26,15.769,9.12,14.487a.22.22,0,0,0-.267,0q-2.146,1.289-4.3,2.569a.951.951,0,0,1-1.482-.729,2.026,2.026,0,0,1,.1-.637q.515-2.277,1.039-4.552a.272.272,0,0,0-.108-.309Q2.23,9.194.361,7.55A.955.955,0,0,1,.883,5.856q.488-.05.977-.095L4.512,5.52c.448-.04.9-.083,1.345-.114a.287.287,0,0,0,.282-.2C6.779,3.693,7.427,2.182,8.071.67A.961.961,0,0,1,9.585.215a1.141,1.141,0,0,1,.324.47c.648,1.517,1.3,3.033,1.943,4.552a.237.237,0,0,0,.23.165q1.641.142,3.282.289c.582.052,1.163.105,1.744.168a.923.923,0,0,1,.829.7.831.831,0,0,0,.034.078Z" transform="translate(0 0)" fill="#3d5065"/>
              </g>
            </g>
          </g>
          <text id="_Great_Product_For_Cleaning_Every_Room._This_is_a_great_starter_kit_and_all_three_scents_are_just_lovely._Cleaning_is_no_longer_a_chore_and_once_I_started_I_didn_t_want_to_stop._So_good_to_just_need_one_product_for_every_surface._Andrea_Verified_Buyer" data-name="“Great Product For Cleaning Every Room. This is a great starter kit and all three scents are just lovely. Cleaning is no longer a chore and once I started I didn’t want to stop. So good to just need one product for every surface.”

Andrea, Verified Buyer" transform="translate(-656 4299)" fill="#3d4f64" font-size="17" font-family="Value-Bold, Value" font-weight="700"><tspan x="12" y="12">“Great Product For Cleaning Every </tspan><tspan x="6" y="32">Room. This is a great starter kit and </tspan><tspan x="31" y="52">all three scents are just lovely. </tspan><tspan x="15" y="72">Cleaning is no longer a chore and </tspan><tspan x="9" y="92">once I started I didn’t want to stop. </tspan><tspan x="2" y="112">So good to just need one product for </tspan><tspan x="92" y="132">every surface.”</tspan><tspan x="150" y="152"></tspan></text>
        </g>
        <g id="Group_12" data-name="Group 12" transform="translate(11 31)">
          <rect id="Rectangle_25" data-name="Rectangle 25" width="374" height="234" rx="7" transform="translate(-390 4244)" fill="#fff"/>
          <g id="Stars-2" data-name="Stars" transform="translate(-253.6 4268.455)">
            <g id="Group_4-2" data-name="Group 4" transform="translate(0 0)">
              <g id="Group_3-6" data-name="Group 3" clip-path="url(#clip-path)">
                <path id="Path_374-6" data-name="Path 374" d="M17.97,6.987c-.134.488-.556.733-.9,1.038-1.075.955-2.16,1.9-3.244,2.843a.207.207,0,0,0-.073.239c.372,1.625.738,3.252,1.108,4.877A.962.962,0,0,1,13.4,17.051Q11.26,15.769,9.12,14.487a.22.22,0,0,0-.267,0q-2.146,1.289-4.3,2.569a.951.951,0,0,1-1.482-.729,2.026,2.026,0,0,1,.1-.637q.515-2.277,1.039-4.552a.272.272,0,0,0-.108-.309Q2.23,9.194.361,7.55A.955.955,0,0,1,.883,5.856q.488-.05.977-.095L4.512,5.52c.448-.04.9-.083,1.345-.114a.287.287,0,0,0,.282-.2C6.779,3.693,7.427,2.182,8.071.67A.961.961,0,0,1,9.585.215a1.141,1.141,0,0,1,.324.47c.648,1.517,1.3,3.033,1.943,4.552a.237.237,0,0,0,.23.165q1.641.142,3.282.289c.582.052,1.163.105,1.744.168a.923.923,0,0,1,.829.7.831.831,0,0,0,.034.078Z" transform="translate(0 0)" fill="#3d5065"/>
              </g>
            </g>
            <g id="Group_5-2" data-name="Group 5" transform="translate(20.808 0)">
              <g id="Group_3-7" data-name="Group 3" clip-path="url(#clip-path)">
                <path id="Path_374-7" data-name="Path 374" d="M17.97,6.987c-.134.488-.556.733-.9,1.038-1.075.955-2.16,1.9-3.244,2.843a.207.207,0,0,0-.073.239c.372,1.625.738,3.252,1.108,4.877A.962.962,0,0,1,13.4,17.051Q11.26,15.769,9.12,14.487a.22.22,0,0,0-.267,0q-2.146,1.289-4.3,2.569a.951.951,0,0,1-1.482-.729,2.026,2.026,0,0,1,.1-.637q.515-2.277,1.039-4.552a.272.272,0,0,0-.108-.309Q2.23,9.194.361,7.55A.955.955,0,0,1,.883,5.856q.488-.05.977-.095L4.512,5.52c.448-.04.9-.083,1.345-.114a.287.287,0,0,0,.282-.2C6.779,3.693,7.427,2.182,8.071.67A.961.961,0,0,1,9.585.215a1.141,1.141,0,0,1,.324.47c.648,1.517,1.3,3.033,1.943,4.552a.237.237,0,0,0,.23.165q1.641.142,3.282.289c.582.052,1.163.105,1.744.168a.923.923,0,0,1,.829.7.831.831,0,0,0,.034.078Z" transform="translate(0 0)" fill="#3d5065"/>
              </g>
            </g>
            <g id="Group_6-2" data-name="Group 6" transform="translate(41.615 0)">
              <g id="Group_3-8" data-name="Group 3" clip-path="url(#clip-path)">
                <path id="Path_374-8" data-name="Path 374" d="M17.97,6.987c-.134.488-.556.733-.9,1.038-1.075.955-2.16,1.9-3.244,2.843a.207.207,0,0,0-.073.239c.372,1.625.738,3.252,1.108,4.877A.962.962,0,0,1,13.4,17.051Q11.26,15.769,9.12,14.487a.22.22,0,0,0-.267,0q-2.146,1.289-4.3,2.569a.951.951,0,0,1-1.482-.729,2.026,2.026,0,0,1,.1-.637q.515-2.277,1.039-4.552a.272.272,0,0,0-.108-.309Q2.23,9.194.361,7.55A.955.955,0,0,1,.883,5.856q.488-.05.977-.095L4.512,5.52c.448-.04.9-.083,1.345-.114a.287.287,0,0,0,.282-.2C6.779,3.693,7.427,2.182,8.071.67A.961.961,0,0,1,9.585.215a1.141,1.141,0,0,1,.324.47c.648,1.517,1.3,3.033,1.943,4.552a.237.237,0,0,0,.23.165q1.641.142,3.282.289c.582.052,1.163.105,1.744.168a.923.923,0,0,1,.829.7.831.831,0,0,0,.034.078Z" transform="translate(0 0)" fill="#3d5065"/>
              </g>
            </g>
            <g id="Group_7-2" data-name="Group 7" transform="translate(62.423 0)">
              <g id="Group_3-9" data-name="Group 3" clip-path="url(#clip-path)">
                <path id="Path_374-9" data-name="Path 374" d="M17.97,6.987c-.134.488-.556.733-.9,1.038-1.075.955-2.16,1.9-3.244,2.843a.207.207,0,0,0-.073.239c.372,1.625.738,3.252,1.108,4.877A.962.962,0,0,1,13.4,17.051Q11.26,15.769,9.12,14.487a.22.22,0,0,0-.267,0q-2.146,1.289-4.3,2.569a.951.951,0,0,1-1.482-.729,2.026,2.026,0,0,1,.1-.637q.515-2.277,1.039-4.552a.272.272,0,0,0-.108-.309Q2.23,9.194.361,7.55A.955.955,0,0,1,.883,5.856q.488-.05.977-.095L4.512,5.52c.448-.04.9-.083,1.345-.114a.287.287,0,0,0,.282-.2C6.779,3.693,7.427,2.182,8.071.67A.961.961,0,0,1,9.585.215a1.141,1.141,0,0,1,.324.47c.648,1.517,1.3,3.033,1.943,4.552a.237.237,0,0,0,.23.165q1.641.142,3.282.289c.582.052,1.163.105,1.744.168a.923.923,0,0,1,.829.7.831.831,0,0,0,.034.078Z" transform="translate(0 0)" fill="#3d5065"/>
              </g>
            </g>
            <g id="Group_8-2" data-name="Group 8" transform="translate(83.231 0)">
              <g id="Group_3-10" data-name="Group 3" clip-path="url(#clip-path)">
                <path id="Path_374-10" data-name="Path 374" d="M17.97,6.987c-.134.488-.556.733-.9,1.038-1.075.955-2.16,1.9-3.244,2.843a.207.207,0,0,0-.073.239c.372,1.625.738,3.252,1.108,4.877A.962.962,0,0,1,13.4,17.051Q11.26,15.769,9.12,14.487a.22.22,0,0,0-.267,0q-2.146,1.289-4.3,2.569a.951.951,0,0,1-1.482-.729,2.026,2.026,0,0,1,.1-.637q.515-2.277,1.039-4.552a.272.272,0,0,0-.108-.309Q2.23,9.194.361,7.55A.955.955,0,0,1,.883,5.856q.488-.05.977-.095L4.512,5.52c.448-.04.9-.083,1.345-.114a.287.287,0,0,0,.282-.2C6.779,3.693,7.427,2.182,8.071.67A.961.961,0,0,1,9.585.215a1.141,1.141,0,0,1,.324.47c.648,1.517,1.3,3.033,1.943,4.552a.237.237,0,0,0,.23.165q1.641.142,3.282.289c.582.052,1.163.105,1.744.168a.923.923,0,0,1,.829.7.831.831,0,0,0,.034.078Z" transform="translate(0 0)" fill="#3d5065"/>
              </g>
            </g>
          </g>
          <text id="_Gorgeous_Scent_And_Fabulous_Cleaner._The_whole_house_smelt_fresh_just_from_cleaning_the_kitchen._It_s_safe_to_use_on_all_types_of_surfaces.._I_love_it_and_would_definitely_recommend._Toulla_T._Verified_Buyer" data-name="“Gorgeous Scent And Fabulous Cleaner. The whole house smelt fresh just from cleaning the kitchen. It’s safe to use on all types of surfaces.. I love it and would definitely recommend.”

Toulla T., Verified Buyer" transform="translate(-353 4299)" fill="#3d4f64" font-size="17" font-family="Value-Bold, Value" font-weight="700"><tspan x="28" y="12">“Gorgeous Scent And Fabulous </tspan><tspan x="3" y="32">Cleaner. The whole house smelt fresh </tspan><tspan x="17" y="52">just from cleaning the kitchen. It’s </tspan><tspan x="4" y="72">safe to use on all types of surfaces.. I </tspan><tspan x="43" y="92">love it and would definitely </tspan><tspan x="98" y="112">recommend.”</tspan><tspan x="150" y="132"></tspan></text>
        </g>
        <g id="Group_13" data-name="Group 13" transform="translate(456 31)">
          <rect id="Rectangle_25-2" data-name="Rectangle 25" width="374" height="234" rx="7" transform="translate(-390 4244)" fill="#fff"/>
          <g id="Stars-3" data-name="Stars" transform="translate(-253.6 4268.455)">
            <g id="Group_4-3" data-name="Group 4" transform="translate(0 0)">
              <g id="Group_3-11" data-name="Group 3" clip-path="url(#clip-path)">
                <path id="Path_374-11" data-name="Path 374" d="M17.97,6.987c-.134.488-.556.733-.9,1.038-1.075.955-2.16,1.9-3.244,2.843a.207.207,0,0,0-.073.239c.372,1.625.738,3.252,1.108,4.877A.962.962,0,0,1,13.4,17.051Q11.26,15.769,9.12,14.487a.22.22,0,0,0-.267,0q-2.146,1.289-4.3,2.569a.951.951,0,0,1-1.482-.729,2.026,2.026,0,0,1,.1-.637q.515-2.277,1.039-4.552a.272.272,0,0,0-.108-.309Q2.23,9.194.361,7.55A.955.955,0,0,1,.883,5.856q.488-.05.977-.095L4.512,5.52c.448-.04.9-.083,1.345-.114a.287.287,0,0,0,.282-.2C6.779,3.693,7.427,2.182,8.071.67A.961.961,0,0,1,9.585.215a1.141,1.141,0,0,1,.324.47c.648,1.517,1.3,3.033,1.943,4.552a.237.237,0,0,0,.23.165q1.641.142,3.282.289c.582.052,1.163.105,1.744.168a.923.923,0,0,1,.829.7.831.831,0,0,0,.034.078Z" transform="translate(0 0)" fill="#3d5065"/>
              </g>
            </g>
            <g id="Group_5-3" data-name="Group 5" transform="translate(20.808 0)">
              <g id="Group_3-12" data-name="Group 3" clip-path="url(#clip-path)">
                <path id="Path_374-12" data-name="Path 374" d="M17.97,6.987c-.134.488-.556.733-.9,1.038-1.075.955-2.16,1.9-3.244,2.843a.207.207,0,0,0-.073.239c.372,1.625.738,3.252,1.108,4.877A.962.962,0,0,1,13.4,17.051Q11.26,15.769,9.12,14.487a.22.22,0,0,0-.267,0q-2.146,1.289-4.3,2.569a.951.951,0,0,1-1.482-.729,2.026,2.026,0,0,1,.1-.637q.515-2.277,1.039-4.552a.272.272,0,0,0-.108-.309Q2.23,9.194.361,7.55A.955.955,0,0,1,.883,5.856q.488-.05.977-.095L4.512,5.52c.448-.04.9-.083,1.345-.114a.287.287,0,0,0,.282-.2C6.779,3.693,7.427,2.182,8.071.67A.961.961,0,0,1,9.585.215a1.141,1.141,0,0,1,.324.47c.648,1.517,1.3,3.033,1.943,4.552a.237.237,0,0,0,.23.165q1.641.142,3.282.289c.582.052,1.163.105,1.744.168a.923.923,0,0,1,.829.7.831.831,0,0,0,.034.078Z" transform="translate(0 0)" fill="#3d5065"/>
              </g>
            </g>
            <g id="Group_6-3" data-name="Group 6" transform="translate(41.615 0)">
              <g id="Group_3-13" data-name="Group 3" clip-path="url(#clip-path)">
                <path id="Path_374-13" data-name="Path 374" d="M17.97,6.987c-.134.488-.556.733-.9,1.038-1.075.955-2.16,1.9-3.244,2.843a.207.207,0,0,0-.073.239c.372,1.625.738,3.252,1.108,4.877A.962.962,0,0,1,13.4,17.051Q11.26,15.769,9.12,14.487a.22.22,0,0,0-.267,0q-2.146,1.289-4.3,2.569a.951.951,0,0,1-1.482-.729,2.026,2.026,0,0,1,.1-.637q.515-2.277,1.039-4.552a.272.272,0,0,0-.108-.309Q2.23,9.194.361,7.55A.955.955,0,0,1,.883,5.856q.488-.05.977-.095L4.512,5.52c.448-.04.9-.083,1.345-.114a.287.287,0,0,0,.282-.2C6.779,3.693,7.427,2.182,8.071.67A.961.961,0,0,1,9.585.215a1.141,1.141,0,0,1,.324.47c.648,1.517,1.3,3.033,1.943,4.552a.237.237,0,0,0,.23.165q1.641.142,3.282.289c.582.052,1.163.105,1.744.168a.923.923,0,0,1,.829.7.831.831,0,0,0,.034.078Z" transform="translate(0 0)" fill="#3d5065"/>
              </g>
            </g>
            <g id="Group_7-3" data-name="Group 7" transform="translate(62.423 0)">
              <g id="Group_3-14" data-name="Group 3" clip-path="url(#clip-path)">
                <path id="Path_374-14" data-name="Path 374" d="M17.97,6.987c-.134.488-.556.733-.9,1.038-1.075.955-2.16,1.9-3.244,2.843a.207.207,0,0,0-.073.239c.372,1.625.738,3.252,1.108,4.877A.962.962,0,0,1,13.4,17.051Q11.26,15.769,9.12,14.487a.22.22,0,0,0-.267,0q-2.146,1.289-4.3,2.569a.951.951,0,0,1-1.482-.729,2.026,2.026,0,0,1,.1-.637q.515-2.277,1.039-4.552a.272.272,0,0,0-.108-.309Q2.23,9.194.361,7.55A.955.955,0,0,1,.883,5.856q.488-.05.977-.095L4.512,5.52c.448-.04.9-.083,1.345-.114a.287.287,0,0,0,.282-.2C6.779,3.693,7.427,2.182,8.071.67A.961.961,0,0,1,9.585.215a1.141,1.141,0,0,1,.324.47c.648,1.517,1.3,3.033,1.943,4.552a.237.237,0,0,0,.23.165q1.641.142,3.282.289c.582.052,1.163.105,1.744.168a.923.923,0,0,1,.829.7.831.831,0,0,0,.034.078Z" transform="translate(0 0)" fill="#3d5065"/>
              </g>
            </g>
            <g id="Group_8-3" data-name="Group 8" transform="translate(83.231 0)">
              <g id="Group_3-15" data-name="Group 3" clip-path="url(#clip-path)">
                <path id="Path_374-15" data-name="Path 374" d="M17.97,6.987c-.134.488-.556.733-.9,1.038-1.075.955-2.16,1.9-3.244,2.843a.207.207,0,0,0-.073.239c.372,1.625.738,3.252,1.108,4.877A.962.962,0,0,1,13.4,17.051Q11.26,15.769,9.12,14.487a.22.22,0,0,0-.267,0q-2.146,1.289-4.3,2.569a.951.951,0,0,1-1.482-.729,2.026,2.026,0,0,1,.1-.637q.515-2.277,1.039-4.552a.272.272,0,0,0-.108-.309Q2.23,9.194.361,7.55A.955.955,0,0,1,.883,5.856q.488-.05.977-.095L4.512,5.52c.448-.04.9-.083,1.345-.114a.287.287,0,0,0,.282-.2C6.779,3.693,7.427,2.182,8.071.67A.961.961,0,0,1,9.585.215a1.141,1.141,0,0,1,.324.47c.648,1.517,1.3,3.033,1.943,4.552a.237.237,0,0,0,.23.165q1.641.142,3.282.289c.582.052,1.163.105,1.744.168a.923.923,0,0,1,.829.7.831.831,0,0,0,.034.078Z" transform="translate(0 0)" fill="#3d5065"/>
              </g>
            </g>
          </g>
          <text id="_I_ve_gone_crazy_cleaning_it_smells_gorgeous_no_streaks_and_leaves_all_my_surfaces_sparkling_and_fresh._I_really_have_ditched_all_other_cleaners_now_glass_bottle_is_lovely_Ruth_H._Verified_Buyer" data-name="“I’ve gone crazy cleaning, it smells gorgeous, no streaks and leaves all my surfaces sparkling and fresh. I really have ditched all other cleaners now, glass bottle is lovely”

Ruth H., Verified Buyer" transform="translate(-353 4299)" fill="#3d4f64" font-size="17" font-family="Value-Bold, Value" font-weight="700"><tspan x="15" y="12">“I’ve gone crazy cleaning, it smells </tspan><tspan x="10" y="32">gorgeous, no streaks and leaves all </tspan><tspan x="17" y="52">my surfaces sparkling and fresh. I </tspan><tspan x="2" y="72">really have ditched all other cleaners </tspan><tspan x="47" y="92">now, glass bottle is lovely”</tspan><tspan x="150" y="112"></tspan><tspan x="60" y="132">Ruth H., Verified Buyer</tspan></text>
        </g>
        <g id="Group_6320" data-name="Group 6320" transform="translate(901 31)">
          <rect id="Rectangle_25-3" data-name="Rectangle 25" width="374" height="234" rx="7" transform="translate(-390 4244)" fill="#fff"/>
          <g id="Stars-4" data-name="Stars" transform="translate(-253.6 4268.455)">
            <g id="Group_4-4" data-name="Group 4" transform="translate(0 0)">
              <g id="Group_3-16" data-name="Group 3" clip-path="url(#clip-path)">
                <path id="Path_374-16" data-name="Path 374" d="M17.97,6.987c-.134.488-.556.733-.9,1.038-1.075.955-2.16,1.9-3.244,2.843a.207.207,0,0,0-.073.239c.372,1.625.738,3.252,1.108,4.877A.962.962,0,0,1,13.4,17.051Q11.26,15.769,9.12,14.487a.22.22,0,0,0-.267,0q-2.146,1.289-4.3,2.569a.951.951,0,0,1-1.482-.729,2.026,2.026,0,0,1,.1-.637q.515-2.277,1.039-4.552a.272.272,0,0,0-.108-.309Q2.23,9.194.361,7.55A.955.955,0,0,1,.883,5.856q.488-.05.977-.095L4.512,5.52c.448-.04.9-.083,1.345-.114a.287.287,0,0,0,.282-.2C6.779,3.693,7.427,2.182,8.071.67A.961.961,0,0,1,9.585.215a1.141,1.141,0,0,1,.324.47c.648,1.517,1.3,3.033,1.943,4.552a.237.237,0,0,0,.23.165q1.641.142,3.282.289c.582.052,1.163.105,1.744.168a.923.923,0,0,1,.829.7.831.831,0,0,0,.034.078Z" transform="translate(0 0)" fill="#3d5065"/>
              </g>
            </g>
            <g id="Group_5-4" data-name="Group 5" transform="translate(20.808 0)">
              <g id="Group_3-17" data-name="Group 3" clip-path="url(#clip-path)">
                <path id="Path_374-17" data-name="Path 374" d="M17.97,6.987c-.134.488-.556.733-.9,1.038-1.075.955-2.16,1.9-3.244,2.843a.207.207,0,0,0-.073.239c.372,1.625.738,3.252,1.108,4.877A.962.962,0,0,1,13.4,17.051Q11.26,15.769,9.12,14.487a.22.22,0,0,0-.267,0q-2.146,1.289-4.3,2.569a.951.951,0,0,1-1.482-.729,2.026,2.026,0,0,1,.1-.637q.515-2.277,1.039-4.552a.272.272,0,0,0-.108-.309Q2.23,9.194.361,7.55A.955.955,0,0,1,.883,5.856q.488-.05.977-.095L4.512,5.52c.448-.04.9-.083,1.345-.114a.287.287,0,0,0,.282-.2C6.779,3.693,7.427,2.182,8.071.67A.961.961,0,0,1,9.585.215a1.141,1.141,0,0,1,.324.47c.648,1.517,1.3,3.033,1.943,4.552a.237.237,0,0,0,.23.165q1.641.142,3.282.289c.582.052,1.163.105,1.744.168a.923.923,0,0,1,.829.7.831.831,0,0,0,.034.078Z" transform="translate(0 0)" fill="#3d5065"/>
              </g>
            </g>
            <g id="Group_6-4" data-name="Group 6" transform="translate(41.615 0)">
              <g id="Group_3-18" data-name="Group 3" clip-path="url(#clip-path)">
                <path id="Path_374-18" data-name="Path 374" d="M17.97,6.987c-.134.488-.556.733-.9,1.038-1.075.955-2.16,1.9-3.244,2.843a.207.207,0,0,0-.073.239c.372,1.625.738,3.252,1.108,4.877A.962.962,0,0,1,13.4,17.051Q11.26,15.769,9.12,14.487a.22.22,0,0,0-.267,0q-2.146,1.289-4.3,2.569a.951.951,0,0,1-1.482-.729,2.026,2.026,0,0,1,.1-.637q.515-2.277,1.039-4.552a.272.272,0,0,0-.108-.309Q2.23,9.194.361,7.55A.955.955,0,0,1,.883,5.856q.488-.05.977-.095L4.512,5.52c.448-.04.9-.083,1.345-.114a.287.287,0,0,0,.282-.2C6.779,3.693,7.427,2.182,8.071.67A.961.961,0,0,1,9.585.215a1.141,1.141,0,0,1,.324.47c.648,1.517,1.3,3.033,1.943,4.552a.237.237,0,0,0,.23.165q1.641.142,3.282.289c.582.052,1.163.105,1.744.168a.923.923,0,0,1,.829.7.831.831,0,0,0,.034.078Z" transform="translate(0 0)" fill="#3d5065"/>
              </g>
            </g>
            <g id="Group_7-4" data-name="Group 7" transform="translate(62.423 0)">
              <g id="Group_3-19" data-name="Group 3" clip-path="url(#clip-path)">
                <path id="Path_374-19" data-name="Path 374" d="M17.97,6.987c-.134.488-.556.733-.9,1.038-1.075.955-2.16,1.9-3.244,2.843a.207.207,0,0,0-.073.239c.372,1.625.738,3.252,1.108,4.877A.962.962,0,0,1,13.4,17.051Q11.26,15.769,9.12,14.487a.22.22,0,0,0-.267,0q-2.146,1.289-4.3,2.569a.951.951,0,0,1-1.482-.729,2.026,2.026,0,0,1,.1-.637q.515-2.277,1.039-4.552a.272.272,0,0,0-.108-.309Q2.23,9.194.361,7.55A.955.955,0,0,1,.883,5.856q.488-.05.977-.095L4.512,5.52c.448-.04.9-.083,1.345-.114a.287.287,0,0,0,.282-.2C6.779,3.693,7.427,2.182,8.071.67A.961.961,0,0,1,9.585.215a1.141,1.141,0,0,1,.324.47c.648,1.517,1.3,3.033,1.943,4.552a.237.237,0,0,0,.23.165q1.641.142,3.282.289c.582.052,1.163.105,1.744.168a.923.923,0,0,1,.829.7.831.831,0,0,0,.034.078Z" transform="translate(0 0)" fill="#3d5065"/>
              </g>
            </g>
            <g id="Group_8-4" data-name="Group 8" transform="translate(83.231 0)">
              <g id="Group_3-20" data-name="Group 3" clip-path="url(#clip-path)">
                <path id="Path_374-20" data-name="Path 374" d="M17.97,6.987c-.134.488-.556.733-.9,1.038-1.075.955-2.16,1.9-3.244,2.843a.207.207,0,0,0-.073.239c.372,1.625.738,3.252,1.108,4.877A.962.962,0,0,1,13.4,17.051Q11.26,15.769,9.12,14.487a.22.22,0,0,0-.267,0q-2.146,1.289-4.3,2.569a.951.951,0,0,1-1.482-.729,2.026,2.026,0,0,1,.1-.637q.515-2.277,1.039-4.552a.272.272,0,0,0-.108-.309Q2.23,9.194.361,7.55A.955.955,0,0,1,.883,5.856q.488-.05.977-.095L4.512,5.52c.448-.04.9-.083,1.345-.114a.287.287,0,0,0,.282-.2C6.779,3.693,7.427,2.182,8.071.67A.961.961,0,0,1,9.585.215a1.141,1.141,0,0,1,.324.47c.648,1.517,1.3,3.033,1.943,4.552a.237.237,0,0,0,.23.165q1.641.142,3.282.289c.582.052,1.163.105,1.744.168a.923.923,0,0,1,.829.7.831.831,0,0,0,.034.078Z" transform="translate(0 0)" fill="#3d5065"/>
              </g>
            </g>
          </g>
          <text id="_I_adore_this_product_I_ve_gifted_to_my_friends_for_Christmas_and_they_re_all_converts._We_don_t_just_clean_our_homes_any_more_we_Purdy_and_Figg_them_it_s_the_new_verb_of_2022_Thank_you_for_making_cleaning_a_joy_Susan_D_Verified_Buyer" data-name="“I adore this product, I’ve gifted to my friends for Christmas and they’re all converts. We don’t just clean our homes any more, we ‘Purdy and Figg’ them, it’s the new verb of 2022!! Thank you for making cleaning a joy”

Susan D, Verified Buyer" transform="translate(-353 4299)" fill="#3d4f64" font-size="17" font-family="Value-Bold, Value" font-weight="700"><tspan x="12" y="12">“I adore this product, I’ve gifted to </tspan><tspan x="5" y="32">my friends for Christmas and they’re </tspan><tspan x="8" y="52">all converts. We don’t just clean our </tspan><tspan x="1" y="72">homes any more, we ‘Purdy and Figg’ </tspan><tspan x="22" y="92">them, it’s the new verb of 2022!! </tspan><tspan x="2" y="112">Thank you for making cleaning a joy”</tspan><tspan x="150" y="132"></tspan><tspan x="59" y="152">Susan D, Verified Buyer</tspan></text>
        </g>
      </g>
    </g>
  </g>
</svg>
