<svg xmlns="http://www.w3.org/2000/svg" xmlns:xlink="http://www.w3.org/1999/xlink" width="322.095" height="31" viewBox="0 0 322.095 31">
  <defs>
    <clipPath id="clip-path">
      <rect id="Rectangle_22" data-name="Rectangle 22" width="27.684" height="26.534" fill="#2d4053"/>
    </clipPath>
  </defs>
  <g id="Group_6232" data-name="Group 6232" transform="translate(-221.569 -411)">
    <text id="_6300_reviews" data-name="6300 reviews" transform="translate(385.664 437)" fill="#3d5065" font-size="26" font-family="PierSans-Regular, Pier Sans"><tspan x="0" y="0">6300 reviews</tspan></text>
    <g id="Group_32" data-name="Group 32" transform="translate(221.569 411)">
      <g id="Group_27" data-name="Group 27" transform="translate(0 0)">
        <g id="Group_3" data-name="Group 3" clip-path="url(#clip-path)">
          <path id="Path_374" data-name="Path 374" d="M27.684,10.763c-.207.753-.856,1.129-1.384,1.6-1.656,1.471-3.327,2.925-5,4.379a.318.318,0,0,0-.112.368c.573,2.5,1.137,5.009,1.707,7.514a1.482,1.482,0,0,1-2.253,1.646q-3.3-1.975-6.595-3.951a.34.34,0,0,0-.411,0q-3.307,1.986-6.622,3.957a1.465,1.465,0,0,1-2.282-1.124,3.121,3.121,0,0,1,.158-.981q.793-3.508,1.6-7.013a.419.419,0,0,0-.167-.476Q3.435,14.164.555,11.631a1.471,1.471,0,0,1,.8-2.609q.752-.077,1.5-.146Q4.907,8.688,6.95,8.5c.69-.062,1.38-.128,2.071-.176a.442.442,0,0,0,.434-.307c.987-2.332,1.985-4.66,2.978-6.989a1.481,1.481,0,0,1,2.333-.7,1.757,1.757,0,0,1,.5.724c1,2.338,2,4.673,2.993,7.013a.365.365,0,0,0,.355.254q2.528.218,5.056.446c.9.081,1.792.162,2.687.258A1.421,1.421,0,0,1,27.632,10.1a1.282,1.282,0,0,0,.052.12Z" transform="translate(0 0)" fill="#2d4053"/>
        </g>
      </g>
      <g id="Group_28" data-name="Group 28" transform="translate(32.054 0)">
        <g id="Group_3-2" data-name="Group 3" clip-path="url(#clip-path)">
          <path id="Path_374-2" data-name="Path 374" d="M27.684,10.763c-.207.753-.856,1.129-1.384,1.6-1.656,1.471-3.327,2.925-5,4.379a.318.318,0,0,0-.112.368c.573,2.5,1.137,5.009,1.707,7.514a1.482,1.482,0,0,1-2.253,1.646q-3.3-1.975-6.595-3.951a.34.34,0,0,0-.411,0q-3.307,1.986-6.622,3.957a1.465,1.465,0,0,1-2.282-1.124,3.121,3.121,0,0,1,.158-.981q.793-3.508,1.6-7.013a.419.419,0,0,0-.167-.476Q3.435,14.164.555,11.631a1.471,1.471,0,0,1,.8-2.609q.752-.077,1.5-.146Q4.907,8.688,6.95,8.5c.69-.062,1.38-.128,2.071-.176a.442.442,0,0,0,.434-.307c.987-2.332,1.985-4.66,2.978-6.989a1.481,1.481,0,0,1,2.333-.7,1.757,1.757,0,0,1,.5.724c1,2.338,2,4.673,2.993,7.013a.365.365,0,0,0,.355.254q2.528.218,5.056.446c.9.081,1.792.162,2.687.258A1.421,1.421,0,0,1,27.632,10.1a1.282,1.282,0,0,0,.052.12Z" transform="translate(0 0)" fill="#2d4053"/>
        </g>
      </g>
      <g id="Group_29" data-name="Group 29" transform="translate(64.109 0)">
        <g id="Group_3-3" data-name="Group 3" clip-path="url(#clip-path)">
          <path id="Path_374-3" data-name="Path 374" d="M27.684,10.763c-.207.753-.856,1.129-1.384,1.6-1.656,1.471-3.327,2.925-5,4.379a.318.318,0,0,0-.112.368c.573,2.5,1.137,5.009,1.707,7.514a1.482,1.482,0,0,1-2.253,1.646q-3.3-1.975-6.595-3.951a.34.34,0,0,0-.411,0q-3.307,1.986-6.622,3.957a1.465,1.465,0,0,1-2.282-1.124,3.121,3.121,0,0,1,.158-.981q.793-3.508,1.6-7.013a.419.419,0,0,0-.167-.476Q3.435,14.164.555,11.631a1.471,1.471,0,0,1,.8-2.609q.752-.077,1.5-.146Q4.907,8.688,6.95,8.5c.69-.062,1.38-.128,2.071-.176a.442.442,0,0,0,.434-.307c.987-2.332,1.985-4.66,2.978-6.989a1.481,1.481,0,0,1,2.333-.7,1.757,1.757,0,0,1,.5.724c1,2.338,2,4.673,2.993,7.013a.365.365,0,0,0,.355.254q2.528.218,5.056.446c.9.081,1.792.162,2.687.258A1.421,1.421,0,0,1,27.632,10.1a1.282,1.282,0,0,0,.052.12Z" transform="translate(0 0)" fill="#2d4053"/>
        </g>
      </g>
      <g id="Group_30" data-name="Group 30" transform="translate(96.163 0)">
        <g id="Group_3-4" data-name="Group 3" clip-path="url(#clip-path)">
          <path id="Path_374-4" data-name="Path 374" d="M27.684,10.763c-.207.753-.856,1.129-1.384,1.6-1.656,1.471-3.327,2.925-5,4.379a.318.318,0,0,0-.112.368c.573,2.5,1.137,5.009,1.707,7.514a1.482,1.482,0,0,1-2.253,1.646q-3.3-1.975-6.595-3.951a.34.34,0,0,0-.411,0q-3.307,1.986-6.622,3.957a1.465,1.465,0,0,1-2.282-1.124,3.121,3.121,0,0,1,.158-.981q.793-3.508,1.6-7.013a.419.419,0,0,0-.167-.476Q3.435,14.164.555,11.631a1.471,1.471,0,0,1,.8-2.609q.752-.077,1.5-.146Q4.907,8.688,6.95,8.5c.69-.062,1.38-.128,2.071-.176a.442.442,0,0,0,.434-.307c.987-2.332,1.985-4.66,2.978-6.989a1.481,1.481,0,0,1,2.333-.7,1.757,1.757,0,0,1,.5.724c1,2.338,2,4.673,2.993,7.013a.365.365,0,0,0,.355.254q2.528.218,5.056.446c.9.081,1.792.162,2.687.258A1.421,1.421,0,0,1,27.632,10.1a1.282,1.282,0,0,0,.052.12Z" transform="translate(0 0)" fill="#2d4053"/>
        </g>
      </g>
      <g id="Group_31" data-name="Group 31" transform="translate(128.218 0)">
        <g id="Group_3-5" data-name="Group 3" clip-path="url(#clip-path)">
          <path id="Path_374-5" data-name="Path 374" d="M27.684,10.763c-.207.753-.856,1.129-1.384,1.6-1.656,1.471-3.327,2.925-5,4.379a.318.318,0,0,0-.112.368c.573,2.5,1.137,5.009,1.707,7.514a1.482,1.482,0,0,1-2.253,1.646q-3.3-1.975-6.595-3.951a.34.34,0,0,0-.411,0q-3.307,1.986-6.622,3.957a1.465,1.465,0,0,1-2.282-1.124,3.121,3.121,0,0,1,.158-.981q.793-3.508,1.6-7.013a.419.419,0,0,0-.167-.476Q3.435,14.164.555,11.631a1.471,1.471,0,0,1,.8-2.609q.752-.077,1.5-.146Q4.907,8.688,6.95,8.5c.69-.062,1.38-.128,2.071-.176a.442.442,0,0,0,.434-.307c.987-2.332,1.985-4.66,2.978-6.989a1.481,1.481,0,0,1,2.333-.7,1.757,1.757,0,0,1,.5.724c1,2.338,2,4.673,2.993,7.013a.365.365,0,0,0,.355.254q2.528.218,5.056.446c.9.081,1.792.162,2.687.258A1.421,1.421,0,0,1,27.632,10.1a1.282,1.282,0,0,0,.052.12Z" transform="translate(0 0)" fill="#2d4053"/>
        </g>
      </g>
    </g>
  </g>
</svg>
