<svg xmlns="http://www.w3.org/2000/svg" xmlns:xlink="http://www.w3.org/1999/xlink" width="138.628" height="23.594" viewBox="0 0 138.628 23.594">
  <defs>
    <clipPath id="clip-path">
      <rect id="Rectangle_22" data-name="Rectangle 22" width="24.616" height="23.594" fill="#2d4053"/>
    </clipPath>
  </defs>
  <g id="Group_6197" data-name="Group 6197" transform="translate(0)">
    <g id="Group_27" data-name="Group 27" transform="translate(0)">
      <g id="Group_3" data-name="Group 3" clip-path="url(#clip-path)">
        <path id="Path_374" data-name="Path 374" d="M24.616,9.57c-.184.669-.761,1-1.231,1.421-1.473,1.308-2.959,2.6-4.444,3.894a.283.283,0,0,0-.1.327c.51,2.226,1.011,4.454,1.518,6.681a1.317,1.317,0,0,1-2,1.464q-2.932-1.756-5.864-3.513a.3.3,0,0,0-.366,0q-2.94,1.766-5.888,3.519a1.3,1.3,0,0,1-2.029-1A2.775,2.775,0,0,1,4.35,21.5q.705-3.119,1.424-6.236a.373.373,0,0,0-.148-.423Q3.055,12.595.494,10.342a1.308,1.308,0,0,1,.715-2.32q.668-.069,1.338-.129,1.816-.166,3.633-.33c.614-.055,1.227-.114,1.842-.156a.393.393,0,0,0,.386-.273C9.285,5.059,10.173,2.99,11.056.918A1.317,1.317,0,0,1,13.13.294a1.563,1.563,0,0,1,.444.644c.887,2.079,1.78,4.155,2.661,6.236a.325.325,0,0,0,.315.226q2.248.194,4.5.4c.8.072,1.594.144,2.389.23a1.264,1.264,0,0,1,1.135.957,1.139,1.139,0,0,0,.046.107Z" transform="translate(0 0)" fill="#2d4053"/>
      </g>
    </g>
    <g id="Group_28" data-name="Group 28" transform="translate(28.502)">
      <g id="Group_3-2" data-name="Group 3" clip-path="url(#clip-path)">
        <path id="Path_374-2" data-name="Path 374" d="M24.616,9.57c-.184.669-.761,1-1.231,1.421-1.473,1.308-2.959,2.6-4.444,3.894a.283.283,0,0,0-.1.327c.51,2.226,1.011,4.454,1.518,6.681a1.317,1.317,0,0,1-2,1.464q-2.932-1.756-5.864-3.513a.3.3,0,0,0-.366,0q-2.94,1.766-5.888,3.519a1.3,1.3,0,0,1-2.029-1A2.775,2.775,0,0,1,4.35,21.5q.705-3.119,1.424-6.236a.373.373,0,0,0-.148-.423Q3.055,12.595.494,10.342a1.308,1.308,0,0,1,.715-2.32q.668-.069,1.338-.129,1.816-.166,3.633-.33c.614-.055,1.227-.114,1.842-.156a.393.393,0,0,0,.386-.273C9.285,5.059,10.173,2.99,11.056.918A1.317,1.317,0,0,1,13.13.294a1.563,1.563,0,0,1,.444.644c.887,2.079,1.78,4.155,2.661,6.236a.325.325,0,0,0,.315.226q2.248.194,4.5.4c.8.072,1.594.144,2.389.23a1.264,1.264,0,0,1,1.135.957,1.139,1.139,0,0,0,.046.107Z" transform="translate(0 0)" fill="#2d4053"/>
      </g>
    </g>
    <g id="Group_29" data-name="Group 29" transform="translate(57.006)">
      <g id="Group_3-3" data-name="Group 3" clip-path="url(#clip-path)">
        <path id="Path_374-3" data-name="Path 374" d="M24.616,9.57c-.184.669-.761,1-1.231,1.421-1.473,1.308-2.959,2.6-4.444,3.894a.283.283,0,0,0-.1.327c.51,2.226,1.011,4.454,1.518,6.681a1.317,1.317,0,0,1-2,1.464q-2.932-1.756-5.864-3.513a.3.3,0,0,0-.366,0q-2.94,1.766-5.888,3.519a1.3,1.3,0,0,1-2.029-1A2.775,2.775,0,0,1,4.35,21.5q.705-3.119,1.424-6.236a.373.373,0,0,0-.148-.423Q3.055,12.595.494,10.342a1.308,1.308,0,0,1,.715-2.32q.668-.069,1.338-.129,1.816-.166,3.633-.33c.614-.055,1.227-.114,1.842-.156a.393.393,0,0,0,.386-.273C9.285,5.059,10.173,2.99,11.056.918A1.317,1.317,0,0,1,13.13.294a1.563,1.563,0,0,1,.444.644c.887,2.079,1.78,4.155,2.661,6.236a.325.325,0,0,0,.315.226q2.248.194,4.5.4c.8.072,1.594.144,2.389.23a1.264,1.264,0,0,1,1.135.957,1.139,1.139,0,0,0,.046.107Z" transform="translate(0 0)" fill="#2d4053"/>
      </g>
    </g>
    <g id="Group_30" data-name="Group 30" transform="translate(85.508)">
      <g id="Group_3-4" data-name="Group 3" clip-path="url(#clip-path)">
        <path id="Path_374-4" data-name="Path 374" d="M24.616,9.57c-.184.669-.761,1-1.231,1.421-1.473,1.308-2.959,2.6-4.444,3.894a.283.283,0,0,0-.1.327c.51,2.226,1.011,4.454,1.518,6.681a1.317,1.317,0,0,1-2,1.464q-2.932-1.756-5.864-3.513a.3.3,0,0,0-.366,0q-2.94,1.766-5.888,3.519a1.3,1.3,0,0,1-2.029-1A2.775,2.775,0,0,1,4.35,21.5q.705-3.119,1.424-6.236a.373.373,0,0,0-.148-.423Q3.055,12.595.494,10.342a1.308,1.308,0,0,1,.715-2.32q.668-.069,1.338-.129,1.816-.166,3.633-.33c.614-.055,1.227-.114,1.842-.156a.393.393,0,0,0,.386-.273C9.285,5.059,10.173,2.99,11.056.918A1.317,1.317,0,0,1,13.13.294a1.563,1.563,0,0,1,.444.644c.887,2.079,1.78,4.155,2.661,6.236a.325.325,0,0,0,.315.226q2.248.194,4.5.4c.8.072,1.594.144,2.389.23a1.264,1.264,0,0,1,1.135.957,1.139,1.139,0,0,0,.046.107Z" transform="translate(0 0)" fill="#2d4053"/>
      </g>
    </g>
    <g id="Group_31" data-name="Group 31" transform="translate(114.011)">
      <g id="Group_3-5" data-name="Group 3" clip-path="url(#clip-path)">
        <path id="Path_374-5" data-name="Path 374" d="M24.616,9.57c-.184.669-.761,1-1.231,1.421-1.473,1.308-2.959,2.6-4.444,3.894a.283.283,0,0,0-.1.327c.51,2.226,1.011,4.454,1.518,6.681a1.317,1.317,0,0,1-2,1.464q-2.932-1.756-5.864-3.513a.3.3,0,0,0-.366,0q-2.94,1.766-5.888,3.519a1.3,1.3,0,0,1-2.029-1A2.775,2.775,0,0,1,4.35,21.5q.705-3.119,1.424-6.236a.373.373,0,0,0-.148-.423Q3.055,12.595.494,10.342a1.308,1.308,0,0,1,.715-2.32q.668-.069,1.338-.129,1.816-.166,3.633-.33c.614-.055,1.227-.114,1.842-.156a.393.393,0,0,0,.386-.273C9.285,5.059,10.173,2.99,11.056.918A1.317,1.317,0,0,1,13.13.294a1.563,1.563,0,0,1,.444.644c.887,2.079,1.78,4.155,2.661,6.236a.325.325,0,0,0,.315.226q2.248.194,4.5.4c.8.072,1.594.144,2.389.23a1.264,1.264,0,0,1,1.135.957,1.139,1.139,0,0,0,.046.107Z" transform="translate(0 0)" fill="#2d4053"/>
      </g>
    </g>
  </g>
</svg>
