<svg xmlns="http://www.w3.org/2000/svg" width="340" height="340" viewBox="0 0 340 340">
  <g id="Group_6330" data-name="Group 6330" transform="translate(-244 -5223.5)">
    <circle id="Ellipse_89" data-name="Ellipse 89" cx="170" cy="170" r="170" transform="translate(244 5223.5)" fill="#fff"/>
    <g id="spray" transform="translate(267.814 5234.774)">
      <path id="Path_5995" data-name="Path 5995" d="M112.582,391.668V421.73a14.346,14.346,0,0,1-.052,2.032,3.205,3.205,0,0,1-3.1,3.034,3.165,3.165,0,0,1-3.7-2.568,11.522,11.522,0,0,1-.214-2.69q-.013-29.946-.009-59.9c0-3.649,1.243-5.463,3.658-5.384,2.35.074,3.409,1.735,3.409,5.35Q112.584,376.635,112.582,391.668Z" transform="translate(-22.264 -175.134)" fill="#455066"/>
      <path id="Path_5996" data-name="Path 5996" d="M372.354,418.4a2.436,2.436,0,0,1,.336-1.352q.026-4.356.044-8.711a2.12,2.12,0,0,1-.379-1.234,2.364,2.364,0,0,1,.392-1.282q.02-4.205.022-8.41a2.572,2.572,0,0,1-.484-1.574c-.039-5.066,0-10.132-.031-15.2-.009-1.975-.061-3.95-.179-5.921a4.805,4.805,0,0,0-5.027-4.779c-6.522-.031-13.045.009-19.563.026-2.751,0-5.507.039-8.258.026-3.911-.017-5.637,2.764-5.6,5.847.074,6.448.148,12.9.179,19.349q.079,17.847.1,35.695c.009,4.534,0,9.069,0,13.612h38.551c0-2.878.009-5.594,0-8.31Q372.411,427.292,372.354,418.4Zm-7.83,20.7c-2.136.017-4.273,0-6.409,0v.227q-5.781,0-11.562,0c-1.67,0-3.344.039-5.005-.083-1.718-.126-2.437-.9-2.407-2.289a2.324,2.324,0,0,1,2.585-2.385c3.257-.1,6.518-.083,9.779-.087,4.408,0,8.811-.035,13.219.048,1.757.03,2.6.972,2.572,2.472C367.275,438.264,366.215,439.084,364.524,439.1Z" transform="translate(-150.925 -182.843)" fill="#e8f4fb"/>
      <path id="Path_5997" data-name="Path 5997" d="M327.765,438.25h38.551c0-2.877.009-5.594,0-8.31q-.039-8.894-.1-17.788a2.151,2.151,0,0,1,2.071-2.337,2.054,2.054,0,0,1,2.568,1.936c.214,2.11.235,4.247.244,6.37q.039,10.673.013,21.346c0,2.681-.724,3.479-3.388,3.51-4.861.061-9.727.035-14.588.048q-10.843.026-21.691.065-2.583.007-5.158.061c-2.424.048-3.152-.628-3.17-3.1-.039-5.581-.039-11.166-.07-16.747q-.085-14.937-.183-29.879c-.048-8.328-.2-16.655-.078-24.978a9.415,9.415,0,0,1,8.929-9.33c5.646-.209,11.3-.161,16.951-.2,4.238-.035,8.471-.083,12.709-.057a9.8,9.8,0,0,1,9.374,9.548c.17,7.033.126,14.069.144,21.106a2.376,2.376,0,1,1-4.748.083c-.039-5.066,0-10.132-.03-15.2-.009-1.975-.061-3.95-.179-5.921a4.805,4.805,0,0,0-5.027-4.778c-6.522-.031-13.045.009-19.563.026-2.751,0-5.507.039-8.258.026-3.911-.017-5.637,2.764-5.6,5.847.074,6.448.148,12.9.179,19.349q.078,17.847.1,35.695Q327.771,431.438,327.765,438.25Z" transform="translate(-144.786 -176.599)" fill="#455066"/>
      <path id="Path_5998" data-name="Path 5998" d="M422.45,452.163a2.339,2.339,0,0,1,2.28-2.332,2.258,2.258,0,0,1,2.4,2.472,2.084,2.084,0,0,1-2.184,2.145A2.361,2.361,0,0,1,422.45,452.163Z" transform="translate(-201.021 -227.911)" fill="#455066"/>
      <path id="Path_5999" data-name="Path 5999" d="M164.205,51.529c3.161,0,6.235-.013,9.3,0,3.144.017,4.39,1.216,4.417,4.377q.059,8.031,0,16.066c-.022,3.27-1.251,4.438-4.574,4.456-3,.017-6,0-9.112,0-.074.641-.148,1.068-.17,1.5-.161,3.017-1.295,4.146-4.39,4.2-3.165.048-6.335.009-9.5.017-.519,0-1.038.061-1.91.113.449.889.78,1.6,1.151,2.289q6.193,11.425,12.387,22.85c1.862,3.449.889,5.541-2.956,6.4-2.5.558-5.04.937-7.508,1.6-2.224.6-3.741-.122-5.114-1.84-5.415-6.771-10.882-13.5-16.337-20.243-.375-.462-.776-.9-1.4-1.631a32.049,32.049,0,0,0-2.006,10.865,5.968,5.968,0,0,1-.567,3.026,13.861,13.861,0,0,1-3.061,2.385c-.253-.087-.51-.174-.763-.266.314,6.509.288,13.067,1.142,19.506.275,2.075,2.607,4.146,4.447,5.685,3.518,2.943,7.408,5.441,11.052,8.24a76.147,76.147,0,0,1,15.05,14.924,37.033,37.033,0,0,1,7.73,22.885c-.14,27.9-.052,55.811-.052,83.719,0,4.691-.85,5.541-5.52,5.541H72.014c-4.382,0-5.31-.92-5.31-5.289q0-52.045-.035-104.085a28.972,28.972,0,0,1,4.643-16.018c5.777-9.1,11.436-18.268,17.1-27.441a12.43,12.43,0,0,0,1.7-3.9c.371-1.822.846-3.715-1.7-4.887-.885-.41-1.417-2.42-1.448-3.715-.148-6.182-.061-12.369-.07-18.552-.009-5.659-2.428-8.633-8.027-9.692-2.141-.405-4.325-.61-6.5-.824-4.482-.445-6.256-2.341-6.326-6.849-.17-11.3,8.886-21.063,20.134-21.133,24.581-.157,49.167-.061,73.748-.039,2.786,0,3.985,1.234,4.146,3.963C164.092,50.256,164.144,50.761,164.205,51.529ZM97.319,107.61c.715,5.8-1.971,10.22-4.8,14.658-5.149,8.07-10.089,16.267-15.234,24.337A22.313,22.313,0,0,0,73.7,158.992q.046,49.782.022,99.559c0,.8.074,1.609.109,2.381h80.515c.044-.833.109-1.5.109-2.163q.007-40.5,0-81.007a26.424,26.424,0,0,0-3.566-13.158,56.306,56.306,0,0,0-14.349-16.127c-4.417-3.527-9.042-6.784-13.564-10.176-4.678-3.505-7.364-8.044-7.408-14.035-.035-4.748-.227-9.5-.34-14.244-.017-.794,0-1.591,0-2.42C109.157,107.61,103.445,107.61,97.319,107.61Zm59.535-54.752H125.829c-13.115,0-26.229-.044-39.344.031C79.069,52.933,72.8,59.608,73.4,66.714c1.761.222,3.545.432,5.328.68,9.989,1.4,15.221,7.377,15.225,17.383,0,4.373,0,8.746,0,13.119,0,.794.074,1.591.122,2.516h21.73c3.527,0,3.523,0,4.015-3.405.109-.746.262-1.482.392-2.224,2.206-12.744,10.682-19.846,23.509-19.742,4.347.035,8.694,0,13.132,0Zm-3.109,54.5c-4.395-8.075-8.733-16.084-13.132-24.054-.253-.458-1.134-1.02-1.5-.889-2.193.759-4.321,1.7-6.732,2.694,6.082,7.538,11.75,14.484,17.313,21.512C150.842,108.073,151.932,108.482,153.746,107.362ZM170.7,69.213V58.727h-6.488V69.213Z" transform="translate(0 0)" fill="#455066"/>
      <path id="Path_6000" data-name="Path 6000" d="M107.226,187.65h17.9c0,.828-.017,1.622,0,2.42.113,4.748.31,9.5.34,14.244.044,5.991,2.725,10.525,7.408,14.035,4.526,3.388,9.152,6.649,13.564,10.176a56.249,56.249,0,0,1,14.348,16.127,26.378,26.378,0,0,1,3.566,13.158q.007,40.5,0,81.008c0,.667-.065,1.334-.109,2.163H83.731c-.035-.776-.109-1.578-.109-2.381q-.007-49.782-.022-99.559a22.348,22.348,0,0,1,3.584-12.387c5.149-8.07,10.089-16.267,15.234-24.337C105.256,197.874,107.941,193.453,107.226,187.65Zm-7,108.924V266.512c0-3.614-1.064-5.276-3.409-5.35-2.42-.078-3.658,1.74-3.658,5.384q-.007,29.946.009,59.9a11.292,11.292,0,0,0,.214,2.69,3.176,3.176,0,0,0,3.7,2.568,3.209,3.209,0,0,0,3.1-3.035,15,15,0,0,0,.052-2.032Q100.222,311.6,100.224,296.574Z" transform="translate(-9.907 -80.04)" fill="#e8f4fb"/>
      <path id="Path_6001" data-name="Path 6001" d="M166.327,62.055V84.243c-4.443,0-8.79.031-13.132,0-12.827-.109-21.3,7-23.509,19.742-.126.741-.283,1.478-.392,2.224-.493,3.405-.488,3.405-4.016,3.405h-21.73c-.048-.924-.122-1.718-.122-2.516-.013-4.373,0-8.746,0-13.119-.009-10.006-5.241-15.984-15.225-17.383-1.779-.249-3.566-.458-5.328-.68-.6-7.107,5.672-13.786,13.089-13.825,13.115-.074,26.229-.026,39.344-.031h31.025Z" transform="translate(-9.472 -9.197)" fill="#e8f4fb"/>
      <path id="Path_6002" data-name="Path 6002" d="M239.574,154.79c-1.814,1.121-2.9.711-4.05-.737-5.563-7.028-11.231-13.978-17.313-21.512,2.411-.99,4.539-1.936,6.732-2.694.366-.126,1.247.432,1.5.889C230.841,138.71,235.179,146.715,239.574,154.79Z" transform="translate(-85.828 -47.428)" fill="#e8f4fb"/>
      <path id="Path_6003" data-name="Path 6003" d="M297.7,86.016H291.21V75.53H297.7Z" transform="translate(-127.001 -16.803)" fill="#e8f4fb"/>
      <path id="Path_6004" data-name="Path 6004" d="M350.576,319.05h19.995a3.637,3.637,0,0,1,3.636,3.636V335.67a3.637,3.637,0,0,1-3.636,3.636H350.576a3.637,3.637,0,0,1-3.636-3.636V322.686A3.64,3.64,0,0,1,350.576,319.05Z" transform="translate(-158.433 -154.15)" fill="#e8f4fb" stroke="#465166" stroke-width="7"/>
      <path id="Path_6005" data-name="Path 6005" d="M372.661,401.23h0Z" transform="translate(-150.085 -200.5)" fill="none" stroke="#455066" stroke-width="3"/>
      <rect id="Rectangle_284" data-name="Rectangle 284" width="29.669" height="7.7" transform="translate(187.518 249.491)" fill="#e8f4fb"/>
      <path id="Path_6006" data-name="Path 6006" d="M372.661,513.07h0Z" transform="translate(-150.085 -263.579)" fill="none" stroke="#455066" stroke-width="3"/>
    </g>
  </g>
</svg>
