<svg id="Group_6241" data-name="Group 6241" xmlns="http://www.w3.org/2000/svg" xmlns:xlink="http://www.w3.org/1999/xlink" width="119.788" height="125.003" viewBox="0 0 119.788 125.003">
  <defs>
    <clipPath id="clip-path">
      <rect id="Rectangle_275" data-name="Rectangle 275" width="119.788" height="125.003" fill="#fff"/>
    </clipPath>
  </defs>
  <g id="Group_6240" data-name="Group 6240" clip-path="url(#clip-path)">
    <path id="Path_5970" data-name="Path 5970" d="M12.543,125a35.308,35.308,0,0,1-5.753-2.19A13.314,13.314,0,0,1,.055,111.468c-.1-1.745-.034-3.5-.034-5.247q0-29.722,0-59.443C.02,36,0,25.22.027,14.44A14.023,14.023,0,0,1,10.974.411,15.843,15.843,0,0,1,14.6.021Q38.218-.017,61.84.006A14.134,14.134,0,0,1,76.363,14.37c.05,4.353.01,8.707.01,13.06v1.415l4.093-.379c0-1.408.019-2.812-.006-4.216-.021-1.164.156-2.222,1.358-2.75,1.22-.536,2.079.1,2.9.927q5.506,5.542,11.042,11.054c1.511,1.514,1.522,2.557.037,4.045Q90.239,43.1,84.671,48.666c-.795.8-1.632,1.383-2.806.894a2.419,2.419,0,0,1-1.4-2.6c.019-1.375,0-2.751,0-4.349-1.277.211-2.424.37-3.552.615-.216.047-.424.411-.515.671a2.684,2.684,0,0,0-.026.848q0,21.36-.026,42.721c0,1.129.35,1.5,1.438,1.7a23.475,23.475,0,0,0,27.858-22.253c.166-3.962,1.721-6.414,4.746-7.489a7.02,7.02,0,0,1,9.4,6.818A36.327,36.327,0,0,1,108.4,92.989c-8.724,8.418-19.234,11.813-31.289,10.35a2.348,2.348,0,0,0-.365-.023,2.374,2.374,0,0,0-.376.1c0,2.307-.013,4.656,0,7a14.256,14.256,0,0,1-11.532,14.332,7.407,7.407,0,0,0-.778.251ZM4.407,46.45v1.5q0,30.941,0,61.883c0,.488,0,.976.028,1.464a9.674,9.674,0,0,0,9.616,9.294q24.17.056,48.342,0a9.58,9.58,0,0,0,9.521-9.11c.147-2.8.033-5.613.086-8.419.015-.8-.47-.882-1.04-1.067A36.892,36.892,0,0,1,50.242,85.869c-1.686-2.75-2.9-5.786-4.4-8.823a5.67,5.67,0,0,1-2.242-.253,3.976,3.976,0,0,1-1.431-1.9,1.445,1.445,0,0,1,.4-1.313,14.913,14.913,0,0,1,2.218-1.237V60.376c-1.379-.564-1.935-1.286-1.821-2.432s.84-1.719,2.365-2.017a1.408,1.408,0,0,0,.829-.783c.57-1.388,1-2.838,1.6-4.211.66-1.51,1.454-2.96,2.212-4.482Zm0-15.973H5.555q31.74,0,63.479-.018a6.98,6.98,0,0,0,2.248-.438,1.238,1.238,0,0,0,.674-.917c.025-5.207.11-10.418-.056-15.621a9.086,9.086,0,0,0-7.864-8.815C60.22,4.228,56.325,4.46,52.464,4.4c-.312,0-.625.04-.916.061-1.467,8.65-5.7,13.224-12.5,13.587a12.982,12.982,0,0,1-8.506-2.431A13.341,13.341,0,0,1,24.9,4.4c-3.455,0-6.788,0-10.121,0C8.559,4.4,4.441,8.479,4.411,14.686c-.021,4.435,0,8.869,0,13.3v2.487M84.91,41.9,91.2,35.646,84.856,29.3c0,.142,0,.458,0,.774-.025,2.137-.717,2.779-2.894,2.787a33.219,33.219,0,1,0,33.446,33.574c0-1.793-.949-2.928-2.5-3-1.637-.074-2.7.968-2.843,2.814-.07.933-.04,1.875-.143,2.8a27.887,27.887,0,1,1-29.2-30.793c3.71-.214,3.946-.008,4.192,3.631M60.547,34.954h-56v7.034h11.66q18,0,35.991-.021A2.386,2.386,0,0,0,53.7,41.46c2.326-2.141,4.592-4.347,6.851-6.506m.86,42.092A23.706,23.706,0,0,0,71.921,87.184V46.524c-2.136-.362-2.525-.389-3.967.915a54.472,54.472,0,0,0-4.744,4.877,29.974,29.974,0,0,0-2.325,3.668A22.55,22.55,0,0,1,63.274,56a2.2,2.2,0,0,1,1.96,2.267,2.122,2.122,0,0,1-2.167,2.043c-1.129-.011-2.255-.2-3.475-.323-1.3,2.929-1.2,9.85.134,12.725a32.64,32.64,0,0,1,3.84.034,1.946,1.946,0,0,1,1.66,2.106,2.107,2.107,0,0,1-1.859,2.085c-.558.076-1.127.067-1.958.111M46.97,4.486H29.41a8.789,8.789,0,1,0,17.56,0" transform="translate(0 -0.001)" fill="#fff"/>
    <path id="Path_5971" data-name="Path 5971" d="M52.132,269.277a10.056,10.056,0,0,1-1.1-.006,2.128,2.128,0,0,1-1.933-2.02,1.959,1.959,0,0,1,1.569-2.175,8.06,8.06,0,0,1,2.654-.067,2.1,2.1,0,0,1,1.765,2.285,2.178,2.178,0,0,1-2.1,1.99c-.283.021-.569,0-.854,0v-.01" transform="translate(-38.727 -208.96)" fill="#fff"/>
    <path id="Path_5972" data-name="Path 5972" d="M129.252,269.229c-2.059,0-3.067-.781-2.985-2.312.08-1.484,1.119-2.118,3.384-2.067,1.6.036,2.536.829,2.559,2.162.026,1.484-.952,2.217-2.958,2.217" transform="translate(-99.588 -208.894)" fill="#fff"/>
    <path id="Path_5973" data-name="Path 5973" d="M52.013,348.148a9.155,9.155,0,0,1-1.093-.076,2.022,2.022,0,0,1-1.789-2.008A1.917,1.917,0,0,1,50.7,343.9a8.4,8.4,0,0,1,2.655-.048,2.088,2.088,0,0,1,1.762,2.162,2.17,2.17,0,0,1-2.011,2.08,10.424,10.424,0,0,1-1.1.006c0,.015,0,.03,0,.045" transform="translate(-38.747 -271.145)" fill="#fff"/>
    <path id="Path_5974" data-name="Path 5974" d="M52.019,422.635a9.472,9.472,0,0,1,1.1.007,2.169,2.169,0,0,1,1.944,2.139,2.132,2.132,0,0,1-1.834,2.112,9.549,9.549,0,0,1-2.186.031,2.14,2.14,0,0,1-1.995-2.213,2.164,2.164,0,0,1,2.122-2.091c.283-.023.569,0,.853,0v.018" transform="translate(-38.681 -333.326)" fill="#fff"/>
    <path id="Path_5975" data-name="Path 5975" d="M202.328,426.992a7.276,7.276,0,0,1-1.66-.305,2.141,2.141,0,0,1,.488-4.065,10.52,10.52,0,0,1,2.068-.048,2.179,2.179,0,0,1,2.176,2.169,2.208,2.208,0,0,1-2.085,2.15,8.972,8.972,0,0,1-.974.005l-.012.095" transform="translate(-157.263 -333.276)" fill="#fff"/>
    <path id="Path_5976" data-name="Path 5976" d="M129.161,348.008c-1.934-.007-2.889-.721-2.9-2.168-.009-1.507,1.021-2.243,3.113-2.225,1.864.016,2.864.812,2.837,2.258s-1.015,2.142-3.053,2.135" transform="translate(-99.588 -271.02)" fill="#fff"/>
    <path id="Path_5977" data-name="Path 5977" d="M129.281,422.584c2.035,0,3.039.821,2.913,2.375-.109,1.341-1.017,1.981-2.831,1.992-2.018.013-2.974-.6-3.1-1.971-.141-1.583.885-2.4,3.015-2.4" transform="translate(-99.58 -333.306)" fill="#fff"/>
  </g>
</svg>
