<svg id="Group_6387" data-name="Group 6387" xmlns="http://www.w3.org/2000/svg" width="1922" height="102" viewBox="0 0 1922 102">
  <g id="Group_6239" data-name="Group 6239">
    <rect id="Rectangle_236" data-name="Rectangle 236" width="1922" height="102" fill="#435ca7"/>
    <g id="Group_6238" data-name="Group 6238" transform="translate(-3115 127)">
      <rect id="Rectangle_272" data-name="Rectangle 272" width="255" height="46" rx="23" transform="translate(4614 -96)" fill="#fff"/>
      <text id="GET_OFFER" data-name="GET OFFER" transform="translate(4681 -81)" fill="#435ca7" font-size="24" font-family="Value-Bold, Value" font-weight="700"><tspan x="0" y="17">GET </tspan></text>
    </g>
    <g id="Purdy_Figg_Logo_SingleStack_Plan_de_travail_1" data-name="Purdy_Figg_Logo_SingleStack_Plan de travail 1" transform="translate(69.616 7.451)">
      <path id="Path_5960" data-name="Path 5960" d="M60.765,50.75c0,1.385.462,1.847,1.847,1.847h.97a1.434,1.434,0,0,1,0,2.863H53.609a1.434,1.434,0,0,1,0-2.863h.508c1.385,0,1.847-.462,1.847-1.847V27.665c0-1.2-.462-1.662-1.847-1.662h-.508a1.245,1.245,0,0,1-1.339-1.431,1.245,1.245,0,0,1,1.339-1.431H65.983c6.51,0,10.942,3.878,10.942,9.6S72.493,42.67,65.983,42.67H63.859c-.831,0-1.339-.416-1.339-1.431a1.245,1.245,0,0,1,1.339-1.431h1.247c5.079,0,6.833-3.6,6.833-7.064S70.184,26,64.644,26H62.612c-1.385,0-1.847.462-1.847,1.847Z" transform="translate(0 -1.012)" fill="#fff"/>
      <path id="Path_5961" data-name="Path 5961" d="M148.3,68.439a8.862,8.862,0,0,1-7.71,4.34c-4.617,0-8.357-2.586-8.357-8.08V53.572A1.445,1.445,0,0,0,130.615,52h-.046a1.434,1.434,0,0,1,0-2.863h5.171a.924.924,0,0,1,1.016,1.016V64.238c0,3.232,1.154,5.494,4.479,5.494,3.694,0,6.741-3.647,6.741-8.957v-7.2A1.445,1.445,0,0,0,146.359,52h-.046a1.434,1.434,0,0,1,0-2.863h5.171a.924.924,0,0,1,1.016,1.016V67.608c0,1.016.369,1.754,1.2,1.8h.462c.831-.046,1.339.416,1.339,1.385a1.245,1.245,0,0,1-1.339,1.431h-4.525a1,1,0,0,1-1.062-.97Z" transform="translate(-49.627 -17.778)" fill="#fff"/>
      <path id="Path_5962" data-name="Path 5962" d="M225.41,53.5c-1.293-1.154-1.939-1.847-3.555-1.847-2.863,0-4.34,2.17-4.34,6.187v9.28a1.5,1.5,0,0,0,1.57,1.57c.739,0,1.154.462,1.154,1.431a1.245,1.245,0,0,1-1.339,1.431h-7.341a1.245,1.245,0,0,1-1.339-1.431c0-.97.416-1.431,1.2-1.431a1.5,1.5,0,0,0,1.57-1.57V52.9a1.5,1.5,0,0,0-1.57-1.57c-.739,0-1.2-.462-1.2-1.431a1.245,1.245,0,0,1,1.339-1.431h4.525a1,1,0,0,1,1.062.97l.139,1.524a6.379,6.379,0,0,1,5.633-2.863A6.686,6.686,0,0,1,228,50.085C229.612,51.794,227.165,55.072,225.41,53.5Z" transform="translate(-101.853 -17.108)" fill="#fff"/>
      <path id="Path_5963" data-name="Path 5963" d="M291.334,53.975c0,1.016-.508,1.477-1.339,1.477h-4.709a.947.947,0,0,1-1.062-.97l-.185-2.493a9.509,9.509,0,0,1-8.218,4.017c-5.033,0-10.481-3.6-10.481-11.958,0-7.572,5.448-12.051,10.665-12.051a9.856,9.856,0,0,1,7.8,3.509V27.562a1.445,1.445,0,0,0-1.616-1.57h-.046a1.245,1.245,0,0,1-1.339-1.431,1.245,1.245,0,0,1,1.339-1.431h5.171a.924.924,0,0,1,1.016,1.016v26.5A1.706,1.706,0,0,0,290,52.587C290.918,52.59,291.334,53.006,291.334,53.975ZM283.9,44.049c0-5.171-2.863-9-7.018-9-4.756,0-6.833,3.832-6.833,9,0,5.079,2.078,8.911,6.833,8.911C281.038,52.96,283.9,49.128,283.9,44.049Z" transform="translate(-137.396 -1.006)" fill="#fff"/>
      <path id="Path_5964" data-name="Path 5964" d="M362.947,49.14a1.245,1.245,0,0,1,1.339,1.431c0,.97-.415,1.431-1.154,1.431a1.747,1.747,0,0,0-1.708,1.2L351.312,75.827C349.835,79.151,347.065,82.2,343,82.2a8.505,8.505,0,0,1-6-2.216c-1.57-1.8,1.016-4.848,2.863-3.093.97.877,1.939,2.124,3.647,2.124,3,0,4.432-2.678,6.6-7.433l-9-18.653A1.559,1.559,0,0,0,339.724,52c-.785,0-1.247-.462-1.247-1.431a1.245,1.245,0,0,1,1.339-1.431h7.341a1.245,1.245,0,0,1,1.339,1.431c0,.97-.369,1.431-1.108,1.431s-1.062.369-1.062.923a2.408,2.408,0,0,0,.277,1.016l5.864,12.235,5.356-12.235a3.186,3.186,0,0,0,.323-1.108c0-.508-.323-.831-1.108-.831-.831,0-1.293-.462-1.293-1.431a1.245,1.245,0,0,1,1.339-1.431Z" transform="translate(-183.293 -17.778)" fill="#fff"/>
      <path id="Path_5965" data-name="Path 5965" d="M467.5,52.468a5.492,5.492,0,0,1-4.756,2.539c-2.493,0-4.94-1.385-4.986-5.079-2.031,3.6-5.633,5.079-9.373,5.079-5.633,0-10.019-3.463-10.019-8.957a9.492,9.492,0,0,1,6.879-9.465,6.815,6.815,0,0,1-5.494-6.649c0-5.171,4.663-8.357,9.557-8.357,3.093,0,5.725.785,7.064,2.216,1.477,1.708-.97,4.617-2.816,3-1.293-1.154-2.4-2.262-4.432-2.262-3.14,0-4.848,2.124-4.848,5.079,0,3.417,2.4,5.125,6.279,5.125h.831c.831,0,1.293.462,1.293,1.477s-.462,1.477-1.293,1.477a7.934,7.934,0,0,0-8.264,7.8c0,4.017,2.262,6.556,6.094,6.556,4.34,0,8.357-3.786,8.357-12.512V37.647H455.73c-.831,0-1.293-.508-1.293-1.477,0-.923.462-1.385,1.293-1.385h2.078l1.154-4.386a.9.9,0,0,1,.923-.739h1.385a.776.776,0,0,1,.831.831v4.294h3.278c.831,0,1.293.416,1.293,1.385,0,1.016-.462,1.477-1.293,1.477H462.1v12.7c0,1.108.508,1.754,1.431,1.754a2.514,2.514,0,0,0,1.939-1.2c.508-.646.97-.877,1.616-.554C468.012,50.806,467.919,51.637,467.5,52.468Z" transform="translate(-248.974 -0.006)" fill="#fff"/>
      <path id="Path_5966" data-name="Path 5966" d="M558.915,50.744c0,1.385.462,1.847,1.847,1.847h.508a1.434,1.434,0,0,1,0,2.863h-9.511a1.434,1.434,0,0,1,0-2.863h.508c1.385,0,1.847-.462,1.847-1.847v-22.9c0-1.385-.462-1.847-1.847-1.847h-.508a1.245,1.245,0,0,1-1.339-1.431,1.245,1.245,0,0,1,1.339-1.431H571.8a.911.911,0,0,1,1.016.97l.369,5.817c.046.554-.369.877-1.062.877s-1.108-.369-1.385-1.154c-.97-2.539-2.724-3.647-4.709-3.647h-5.263c-1.385,0-1.847.462-1.847,1.847Zm3.047-9.557c-.831,0-1.293-.462-1.293-1.431s.462-1.431,1.293-1.431h3.924a1.17,1.17,0,0,0,1.339-1.247,1.23,1.23,0,0,1,1.385-1.339,1.245,1.245,0,0,1,1.431,1.339v5.356a1.245,1.245,0,0,1-1.431,1.339,1.23,1.23,0,0,1-1.385-1.339c0-.877-.415-1.247-1.339-1.247Z" transform="translate(-321.228 -1.006)" fill="#fff"/>
      <path id="Path_5967" data-name="Path 5967" d="M627.809,31.362a.924.924,0,0,1,1.016,1.016V50.015a1.5,1.5,0,0,0,1.57,1.57c.739,0,1.154.462,1.154,1.431a1.245,1.245,0,0,1-1.339,1.431h-7.341a1.245,1.245,0,0,1-1.339-1.431c0-.97.416-1.431,1.2-1.431a1.5,1.5,0,0,0,1.57-1.57V35.794a1.5,1.5,0,0,0-1.57-1.57c-.739,0-1.2-.462-1.2-1.431a1.245,1.245,0,0,1,1.339-1.431Zm-4.2-6.837a2.978,2.978,0,1,1,3,3A2.986,2.986,0,0,1,623.608,24.525Z" transform="translate(-367.083)" fill="#fff"/>
      <path id="Path_5968" data-name="Path 5968" d="M680.108,51.009h-2.955a8.223,8.223,0,0,1,2.216,5.725c0,4.756-3.694,8.634-9.742,8.634a12.057,12.057,0,0,1-5.125-1.016,1.952,1.952,0,0,0-1.385,1.847c0,1.2.924,1.57,3,1.57h5.217c5.587,0,9.7,2.262,9.7,7.341,0,4.986-4.617,7.526-10.85,7.526-6.741,0-11.035-2.816-11.035-6.51,0-1.616.646-3.047,2.309-3.047,1.477,0,1.754.97,1.939,2.355.323,2.77,2.17,4.294,6.787,4.294,3.694,0,6.325-1.108,6.325-3.924,0-2.678-1.985-3.694-5.864-3.694H665.01c-4.109,0-5.91-1.708-5.91-4.525a5.479,5.479,0,0,1,3.093-4.848,8.485,8.485,0,0,1-2.308-6c0-4.8,3.232-8.634,9.742-8.634h10.481a1.258,1.258,0,0,1,1.385,1.431A1.292,1.292,0,0,1,680.108,51.009Zm-10.481,0c-2.4,0-5.31,1.293-5.31,5.725s2.909,5.725,5.31,5.725c2.355,0,5.31-1.293,5.31-5.725S671.982,51.009,669.627,51.009Z" transform="translate(-391.309 -17.108)" fill="#fff"/>
      <path id="Path_5969" data-name="Path 5969" d="M750.7,51.009h-2.955a8.222,8.222,0,0,1,2.216,5.725c0,4.756-3.694,8.634-9.742,8.634a12.056,12.056,0,0,1-5.125-1.016,1.951,1.951,0,0,0-1.385,1.847c0,1.2.923,1.57,3,1.57h5.217c5.587,0,9.7,2.262,9.7,7.341,0,4.986-4.617,7.526-10.85,7.526-6.741,0-11.035-2.816-11.035-6.51,0-1.616.646-3.047,2.308-3.047,1.478,0,1.755.97,1.939,2.355.323,2.77,2.17,4.294,6.787,4.294,3.694,0,6.325-1.108,6.325-3.924,0-2.678-1.985-3.694-5.864-3.694H735.6c-4.109,0-5.91-1.708-5.91-4.525a5.479,5.479,0,0,1,3.094-4.848,8.485,8.485,0,0,1-2.309-6c0-4.8,3.232-8.634,9.742-8.634H750.7a1.258,1.258,0,0,1,1.385,1.431A1.292,1.292,0,0,1,750.7,51.009Zm-10.481,0c-2.4,0-5.31,1.293-5.31,5.725s2.909,5.725,5.31,5.725c2.355,0,5.31-1.293,5.31-5.725S742.572,51.009,740.217,51.009Z" transform="translate(-436.829 -17.108)" fill="#fff"/>
    </g>
  </g>
  <text id="FREE_BOTTLE_FOR_LIFE_WORTH_15_" data-name="FREE BOTTLE FOR LIFE (WORTH £15)" transform="translate(1079 43)" fill="#fff" font-size="24" font-family="Value-Bold, Value" font-weight="700"><tspan x="0" y="17">FREE BOTTLE FOR LIFE (WORTH </tspan></text>
</svg>
