<svg xmlns="http://www.w3.org/2000/svg" width="132.844" height="132.781" viewBox="0 0 132.844 132.781">
  <g id="Group_6208" data-name="Group 6208" transform="translate(0 0)">
    <g id="Group_6165" data-name="Group 6165" transform="translate(0 0)">
      <path id="Path_5957" data-name="Path 5957" d="M1616.493-470.092c1.475-2.5,3.8-4.11,6.1-5.689,9.625-6.594,20.424-8.908,31.9-8.255,5.712.326,11.2,2.047,16.664,3.688a290.873,290.873,0,0,1,31.435,11.656,1.365,1.365,0,0,0,1.919-.447c4.373-5.079,8.9-10.031,13.17-15.193,3.87-4.675,9.523-3.982,13.2-1.213.271.2.543.4.866.645,1.477-1.545,2.958-2.971,5.118-3.4,4.057-.814,7.353.649,10,3.555a8.846,8.846,0,0,1,1.646,9.9,19.939,19.939,0,0,1-3.167,4.992c-5.48,6.521-11.058,12.961-16.63,19.4a6.385,6.385,0,0,1-1.906,1.5q-20.029,10.063-40.083,20.078a3.249,3.249,0,0,1-2.958.185q-10.245-4.371-20.526-8.66c-.888-.373-1.614-.85-1.671-1.921a1.888,1.888,0,0,1,2.541-1.9c.863.268,1.688.662,2.524,1.014,5.77,2.43,11.545,4.844,17.3,7.314a2.3,2.3,0,0,0,2.169-.094q19.163-9.62,38.341-19.211a5.693,5.693,0,0,0,1.7-1.331q8.2-9.463,16.344-18.967a9.977,9.977,0,0,0,2.864-5.818,6.242,6.242,0,0,0-3.984-5.83c-2.484-1.1-4.391-.748-6.171,1.3q-9.4,10.823-18.725,21.71a4.14,4.14,0,0,1-3.174,1.679c-1.5.059-3,.318-4.552.5a10.474,10.474,0,0,1-3.422,7.088c-2.4,2.126-5.245,3.228-8.373,2.488-5.753-1.36-11.437-3.01-17.148-4.547-1.667-.448-3.33-.917-4.991-1.389-1.584-.449-2.272-1.338-1.975-2.521.3-1.206,1.416-1.651,3.072-1.2q9.8,2.692,19.605,5.4a8.31,8.31,0,0,0,4.841.252,6.362,6.362,0,0,0,4.416-5.536,6.062,6.062,0,0,0-3.811-6.313c-6.042-2.446-12.079-4.914-18.194-7.166-7.861-2.9-15.772-5.777-24.065-7.113-14.46-2.33-27.558.674-38.585,10.818-1.4,1.285-2.629.977-3.621-.936Zm90.3,4.186c.474,3.029,2.247,3.4,4.538,2.8a2.543,2.543,0,0,1,.644-.068,2.66,2.66,0,0,0,2.154-1.187c2.364-2.87,4.779-5.7,7.195-8.526,2.576-3.014,5.173-6.009,7.756-9.007-2.774-2.678-5.965-2.6-8.422.13-.867.965-1.738,1.927-2.591,2.9C1714.265-474.491,1710.464-470.12,1706.8-465.906Z" transform="translate(-1616.493 561.192)" fill="#fff"/>
      <path id="Path_5958" data-name="Path 5958" d="M1696.152-589.614c2.71.506,5.473.819,8.121,1.551a37.934,37.934,0,0,1,22.284,16.335c6.409,9.846,7.988,20.569,5.062,31.915A37.041,37.041,0,0,1,1724.2-525.4c-.489.593-.989,1.177-1.675,1.991,2.37-.332,4.441-.627,6.513-.91a16.836,16.836,0,0,1,1.932-.21,1.79,1.79,0,0,1,2,1.635,1.743,1.743,0,0,1-1.494,2.095c-1.866.353-3.753.6-5.634.868-2.822.408-5.642.839-8.472,1.189-2.028.251-2.787-.472-2.791-2.523-.008-4.5-.015-9,.006-13.5.007-1.643,1.065-2.565,2.44-2.188a1.967,1.967,0,0,1,1.443,2.182q0,4.152,0,8.3v1.519a31.532,31.532,0,0,0,6.555-8.732c5.436-10.843,5.677-21.84.139-32.641a33.916,33.916,0,0,0-26.044-18.871c-11.663-1.84-21.837,1.557-30.318,9.7a33.655,33.655,0,0,0-10.249,20.2,35.444,35.444,0,0,0,24.221,38.861c.287.1.579.177.859.29,1.261.507,1.773,1.436,1.4,2.524a1.876,1.876,0,0,1-2.632,1.129,62.547,62.547,0,0,1-8.632-3.784c-10.51-6.258-17.072-15.474-18.953-27.579-2.115-13.608,1.918-25.407,11.875-34.985a37.984,37.984,0,0,1,23.662-10.592,3.154,3.154,0,0,0,.611-.178Z" transform="translate(-1627.114 589.614)" fill="#fff"/>
      <path id="Path_5959" data-name="Path 5959" d="M1616.493-431.737a2.713,2.713,0,0,1,2.788-1.607c8.517.051,17.035.018,25.553.042a5.583,5.583,0,0,1,2.014.357c2.446.975,4.865,2.016,7.285,3.053,1.468.63,2.005,1.687,1.483,2.822-.5,1.078-1.558,1.348-3.02.766a2.057,2.057,0,0,1-.238-.1c-4.7-2.622-9.734-3.321-15.084-3.074-5.954.275-11.931.041-17.9.079-1.41.009-2.441-.386-2.885-1.815Z" transform="translate(-1616.493 545.675)" fill="#fff"/>
    </g>
    <text id="_" data-name="£" transform="translate(55.416 47.158)" fill="#fff" font-size="37" font-family="ProximaNova-Semibold, Proxima Nova" font-weight="600"><tspan x="0" y="0">£</tspan></text>
  </g>
</svg>
